
<svg version="1.0" xmlns="http://www.w3.org/2000/svg"
 width="1070.000000pt" height="1080.000000pt" viewBox="0 0 1070.000000 1080.000000"
 preserveAspectRatio="xMidYMid meet">
<metadata>
Created by potrace 1.16, written by Peter Selinger 2001-2019
</metadata>
<g transform="translate(0.000000,1080.000000) scale(0.100000,-0.100000)"
fill="#000000" stroke="none">
<path d="M3293 10478 c-105 -57 -123 -69 -123 -83 0 -8 -8 -15 -17 -15 -16 0
-16 2 -3 11 12 9 11 10 -5 4 -11 -4 -34 -9 -51 -12 -26 -4 -30 -9 -26 -29 3
-18 0 -24 -13 -24 -14 0 -15 3 -5 15 21 25 3 17 -35 -17 -20 -17 -32 -34 -27
-37 6 -3 -10 -6 -35 -6 -42 0 -48 -4 -99 -60 -29 -33 -57 -71 -60 -85 -7 -28
-82 -130 -100 -137 -7 -3 -20 -16 -29 -30 -10 -15 -12 -22 -4 -18 8 5 10 4 5
-3 -10 -16 -39 -15 -30 1 5 8 4 9 -3 2 -6 -5 -15 -31 -22 -57 -6 -26 -23 -59
-37 -73 -14 -14 -22 -30 -19 -35 3 -6 0 -10 -8 -10 -19 0 -49 -34 -40 -45 5
-4 3 -5 -3 -2 -7 4 -26 -6 -43 -22 -17 -16 -41 -31 -54 -35 -55 -13 -160 -70
-165 -88 -4 -16 -11 -19 -36 -14 -37 7 -113 -13 -147 -39 -15 -11 -18 -15 -6
-12 9 4 17 2 17 -4 0 -6 -18 -8 -47 -5 -38 4 -43 3 -23 -4 18 -7 -4 -8 -73 -5
-121 6 -187 -2 -187 -23 0 -9 7 -13 20 -9 11 3 22 1 25 -3 13 -22 -125 -22
-1445 -8 -27 0 -31 2 -15 8 17 6 14 9 -20 19 -101 28 -231 0 -196 -43 15 -17
36 -22 26 -6 -3 6 -1 10 5 10 7 0 10 -6 7 -14 -7 -17 36 -60 48 -49 4 5 5 3 1
-4 -7 -13 42 -52 62 -47 8 2 9 1 1 -3 -7 -3 12 -29 47 -64 32 -32 84 -86 114
-120 61 -68 99 -89 147 -82 22 4 33 1 33 -7 0 -7 -9 -9 -22 -5 -13 3 -1 -6 25
-20 28 -15 56 -23 67 -20 10 3 22 0 26 -6 5 -9 2 -10 -12 -5 -53 20 16 -21
141 -84 108 -54 150 -70 182 -70 36 0 48 -6 77 -37 32 -34 34 -39 19 -50 -9
-7 -12 -13 -7 -13 6 0 15 5 22 12 9 9 5 19 -20 45 -17 18 -30 34 -27 36 2 2
31 1 64 -2 51 -5 60 -9 60 -26 0 -14 8 -21 27 -23 20 -2 28 -9 28 -22 0 -15
-11 -20 -56 -26 -30 -3 -73 -4 -95 -1 -21 3 -37 1 -34 -3 3 -4 -4 -6 -16 -3
-17 5 -20 2 -17 -18 3 -24 1 -24 -78 -25 -86 -1 -208 -33 -165 -44 11 -3 -48
-6 -133 -7 -111 -1 -165 -6 -190 -17 -38 -16 -46 -30 -21 -40 8 -3 19 -16 25
-30 7 -20 21 -27 78 -40 38 -8 111 -37 163 -63 85 -43 100 -47 157 -45 40 1
62 -2 62 -9 0 -7 -11 -9 -27 -5 -24 4 -23 3 7 -10 47 -21 136 -35 181 -28 23
4 39 2 44 -5 5 -8 -2 -10 -22 -6 l-28 7 30 -17 c31 -17 192 -40 232 -32 13 2
20 0 16 -6 -4 -6 5 -7 23 -3 21 5 25 4 14 -4 -10 -6 -11 -10 -2 -10 6 0 12 -9
12 -19 0 -19 14 -19 508 -20 356 -1 502 2 490 10 -18 10 -25 48 -10 50 4 1 41
2 83 4 79 3 136 22 131 44 -2 8 4 10 17 6 23 -7 138 34 122 45 -7 3 1 7 17 7
49 0 250 132 236 155 -3 5 -2 8 3 7 20 -3 30 3 46 30 13 22 26 30 63 35 36 4
58 16 93 47 25 22 82 63 125 91 62 39 76 52 65 60 -11 8 -10 9 4 4 11 -3 46 8
85 28 37 19 86 40 110 47 40 12 78 39 54 39 -6 0 -14 -4 -17 -10 -9 -15 -25
-12 -25 5 0 11 11 14 45 13 25 -1 39 -6 32 -10 -27 -17 6 -6 58 19 36 18 51
30 42 35 -6 4 3 5 22 1 20 -3 32 -2 28 3 -3 5 16 9 41 9 197 1 235 5 222 20
-7 9 -21 13 -31 10 -11 -4 -19 -2 -19 3 0 13 120 24 237 21 124 -3 183 -9 183
-19 0 -5 -9 -6 -20 -3 -11 3 -20 0 -20 -6 0 -6 5 -12 10 -12 6 -1 16 -2 23 -3
8 -1 13 -34 17 -116 5 -107 6 -115 25 -115 18 0 20 8 25 90 l5 90 32 -3 c27
-3 32 -1 27 13 -5 12 -14 15 -30 11 -14 -4 -24 -2 -24 4 0 13 100 13 101 0 1
-5 2 -14 3 -19 0 -5 4 -13 9 -17 4 -4 7 -16 7 -26 0 -11 7 -18 20 -18 19 0 20
6 19 138 0 111 -4 146 -19 182 -10 25 -19 40 -19 34 -1 -6 6 -28 15 -49 11
-26 12 -41 5 -48 -21 -21 -26 6 -27 141 -1 144 -12 196 -39 186 -11 -5 -15 1
-14 22 0 26 1 27 10 9 7 -16 8 -14 4 10 -2 17 -7 95 -10 175 -3 80 -8 165 -11
189 -5 38 -8 43 -28 39 -20 -4 -23 -1 -22 26 2 77 -16 394 -25 423 -10 33 -13
34 -116 36 -18 0 -31 3 -28 5 6 6 -72 52 -88 52 -7 0 6 -10 28 -21 22 -12 42
-23 44 -25 2 -2 -21 -4 -52 -4 -48 0 -57 3 -57 18 0 10 5 23 12 30 9 9 -92 12
-458 12 -468 0 -470 0 -511 -22z"/>
<path d="M4184 8682 c-26 -3 -31 -7 -27 -23 6 -20 -7 -21 -381 -24 -44 0 -50
-3 -63 -30 -14 -29 -17 -30 -86 -31 -49 -1 -88 -8 -122 -23 -27 -12 -40 -20
-27 -17 12 2 22 1 22 -3 0 -4 -37 -7 -83 -7 -88 -1 -170 -20 -146 -35 18 -11
11 -15 -39 -22 -24 -3 -40 -1 -36 4 3 5 -8 9 -24 9 -33 0 -68 -32 -56 -51 5
-9 2 -10 -8 -6 -20 7 -111 -16 -144 -37 -16 -11 -24 -26 -24 -46 0 -36 29
-112 40 -105 5 3 12 0 16 -6 4 -8 3 -9 -4 -5 -7 4 -12 5 -12 1 0 -10 50 -105
56 -105 3 0 2 5 -1 10 -3 6 1 10 11 10 14 0 16 -7 11 -37 -3 -21 -3 -33 -1
-27 3 6 15 9 28 7 18 -4 25 -13 30 -41 8 -52 7 -64 -4 -57 -7 4 -9 -2 -4 -19
5 -22 3 -26 -14 -26 -20 0 -112 -92 -112 -113 0 -28 -180 -223 -191 -206 -4 6
-32 12 -64 13 l-57 1 5 -48 c3 -32 1 -44 -5 -35 -6 8 -8 -4 -4 -37 4 -42 2
-54 -17 -76 -16 -20 -27 -25 -42 -19 -17 6 -16 9 18 31 33 22 47 39 31 39 -4
0 -28 -16 -54 -35 -26 -19 -52 -35 -58 -35 -6 0 -23 -10 -39 -22 -15 -13 -46
-32 -68 -42 -22 -11 -53 -30 -70 -41 -16 -12 -47 -28 -67 -35 -21 -8 -70 -45
-110 -83 -75 -71 -187 -154 -268 -199 -25 -14 -74 -43 -110 -64 -36 -21 -82
-48 -103 -58 -21 -11 -49 -31 -63 -45 -22 -22 -25 -32 -21 -68 3 -28 1 -43 -7
-43 -6 0 -4 -5 4 -10 11 -8 8 -9 -13 -4 -26 6 -28 4 -25 -21 2 -18 -2 -30 -12
-33 -13 -5 -13 -3 -1 14 7 10 -2 3 -22 -17 -38 -40 -76 -51 -163 -49 -45 1
-56 -3 -83 -30 -33 -33 -38 -61 -22 -114 5 -17 17 -58 26 -91 9 -33 63 -149
121 -258 153 -293 170 -339 259 -707 12 -51 34 -197 57 -385 13 -105 3 -393
-22 -625 -11 -102 -20 -250 -20 -329 0 -140 -1 -144 -24 -162 -28 -22 -50 -80
-43 -114 2 -15 0 -22 -6 -18 -7 4 -8 -8 -4 -33 4 -21 7 -51 7 -65 0 -23 5 -27
43 -32 23 -3 58 -2 77 2 29 6 35 11 34 32 -1 27 11 39 43 39 15 0 23 7 25 23
2 17 11 23 34 25 26 3 31 7 27 23 -4 15 0 19 18 19 22 0 24 -4 24 -48 -1 -40
-4 -47 -20 -47 -19 0 -20 -8 -20 -160 0 -95 -4 -163 -10 -167 -5 -4 -34 -8
-62 -8 -52 0 -53 0 -53 -30 l0 -30 -67 0 c-103 0 -143 -9 -143 -31 0 -20 -3
-20 -194 -21 -56 0 -62 -2 -98 -38 l-38 -38 0 -100 c0 -56 4 -103 9 -106 5 -4
7 7 5 24 -4 25 -2 30 15 30 14 0 21 -6 21 -19 0 -11 3 -27 7 -37 5 -14 3 -16
-13 -11 -14 5 -12 2 6 -13 14 -11 28 -20 32 -20 4 0 12 -26 19 -57 13 -61 80
-196 87 -175 9 28 24 10 19 -23 -4 -24 -2 -33 5 -29 7 4 8 2 4 -4 -10 -17 12
-52 32 -51 14 0 14 2 -3 10 -18 8 -18 8 5 6 17 -1 24 -7 22 -19 -1 -9 6 -22
16 -30 11 -7 25 -31 32 -53 19 -59 53 -127 45 -92 -3 15 -1 27 5 27 5 0 10 -8
10 -19 0 -10 2 -34 5 -52 4 -29 3 -30 -4 -9 -9 24 -9 24 -10 3 -1 -16 19 -39
71 -83 40 -33 79 -60 87 -60 10 0 12 -8 8 -30 -11 -53 3 -90 38 -107 23 -11
35 -25 39 -45 4 -18 14 -32 26 -35 11 -3 20 -13 20 -22 0 -14 -2 -14 -10 -1
-16 24 -12 5 9 -43 11 -25 25 -48 32 -52 8 -5 10 -4 5 3 -4 7 -2 12 4 12 6 0
10 -8 8 -17 -1 -10 10 -39 25 -64 15 -25 27 -49 27 -54 0 -15 83 -140 102
-153 10 -7 18 -24 18 -37 0 -40 18 -75 35 -69 10 4 15 0 15 -11 0 -9 -5 -13
-11 -9 -7 4 2 -13 20 -37 17 -24 55 -79 83 -122 28 -42 53 -75 56 -72 3 2 -1
11 -8 20 -10 12 -10 15 4 15 10 0 16 9 16 25 0 31 -28 45 -45 22 -7 -9 -15
-14 -18 -10 -4 3 -2 12 4 19 5 7 9 32 7 56 -3 38 -6 43 -25 40 -19 -3 -22 2
-25 35 -2 30 -7 39 -25 41 -19 3 -24 12 -29 54 -6 47 -8 50 -33 46 -26 -4 -26
-3 -23 49 l4 53 -31 0 c-29 0 -31 2 -31 39 0 21 -3 59 -6 85 -6 40 -10 46 -30
46 -19 0 -24 5 -24 25 0 20 -5 25 -25 25 -22 0 -25 4 -26 38 -2 65 -3 67 -25
64 -20 -3 -22 3 -29 63 -5 54 -10 65 -25 65 -14 0 -20 11 -25 49 l-7 49 -54 7
c-58 7 -54 1 -58 80 -1 12 -9 21 -22 23 -18 3 -23 12 -29 57 -5 45 -10 54 -28
57 -18 2 -23 11 -27 53 -4 42 -8 50 -25 50 -15 0 -21 8 -23 33 -3 26 -7 32
-28 32 -22 0 -24 3 -24 54 0 54 0 55 -32 58 -28 2 -34 8 -36 30 -3 22 -9 28
-28 28 -23 0 -24 2 -24 75 0 73 1 75 25 75 20 0 25 5 25 25 0 22 4 25 36 25
l36 0 -4 62 -3 63 108 -2 107 -2 0 49 c0 46 2 50 24 50 18 0 23 -5 22 -22 -1
-25 -4 -24 119 -20 48 2 55 5 55 22 0 15 7 20 25 20 18 0 25 -5 25 -20 0 -30
47 -28 52 3 2 17 11 23 35 25 24 2 33 9 35 25 3 21 8 22 131 25 l127 3 1 -41
c1 -22 2 -46 3 -52 1 -9 21 -13 61 -13 55 0 60 -2 63 -23 2 -14 10 -22 22 -22
14 0 20 -9 22 -32 2 -25 8 -34 24 -36 18 -3 23 -12 29 -57 5 -45 10 -54 28
-57 14 -2 22 -10 23 -23 4 -89 2 -85 33 -85 27 0 30 -3 36 -49 5 -41 11 -50
28 -53 17 -2 23 -11 25 -35 l3 -32 87 3 c48 2 133 4 189 5 l102 1 3 28 3 27
130 2 c72 2 181 6 243 9 101 5 112 8 112 25 0 16 8 19 63 20 34 1 69 3 77 4 8
1 68 3 134 4 113 1 118 2 113 21 -4 17 0 20 31 22 21 0 42 2 47 3 6 2 88 3
183 4 161 1 172 2 172 20 0 26 40 31 263 31 180 0 187 1 187 20 0 11 1 21 3
21 1 1 74 4 162 8 156 6 160 7 163 29 3 16 10 22 28 22 20 0 24 5 24 30 0 23
4 30 20 30 16 0 20 -7 20 -30 0 -24 -4 -30 -17 -28 -12 2 -19 -4 -21 -19 -3
-19 1 -23 22 -23 19 0 26 5 26 20 0 19 7 20 133 20 74 0 208 3 298 6 151 6
165 8 165 25 0 11 -6 19 -13 19 -7 0 -10 -7 -7 -15 4 -8 2 -15 -4 -15 -5 0
-12 9 -15 20 -6 24 -38 21 313 29 l285 6 3 22 3 23 252 1 c212 1 475 12 415
17 -10 1 -18 9 -18 17 0 13 -49 15 -383 15 -211 0 -387 -3 -390 -7 -4 -3 -2
-12 3 -18 14 -17 -119 -25 -429 -25 -252 0 -331 -5 -331 -20 0 -5 8 -6 19 -3
10 3 22 0 25 -5 7 -11 -80 -24 -124 -18 -32 4 -35 40 -3 44 15 2 23 11 25 30
2 21 8 26 25 24 17 -2 22 3 25 25 2 22 9 29 31 31 21 3 27 9 27 28 0 19 5 24
25 24 21 0 25 5 25 29 0 25 4 30 28 33 21 2 27 8 25 25 -2 19 4 22 57 28 55 6
60 9 60 31 0 19 5 24 25 24 21 0 25 -5 25 -30 0 -26 4 -30 26 -30 15 0 23 -4
19 -10 -4 -6 -12 -9 -19 -8 -6 2 -14 -1 -16 -7 -6 -11 46 -23 72 -17 13 3 20
19 24 54 6 45 9 49 32 46 25 -3 26 -6 23 -56 l-2 -52 30 0 c28 0 31 3 31 30
l0 30 60 0 c57 0 60 -1 60 -25 0 -18 5 -25 19 -25 15 0 20 -10 25 -59 l7 -60
49 1 c39 0 49 4 53 19 4 15 0 19 -24 19 -27 0 -29 3 -31 40 -4 90 -5 85 27 85
25 0 30 4 33 28 3 23 8 27 33 27 24 0 29 -4 29 -25 0 -18 5 -25 19 -25 17 0
20 8 23 53 3 48 5 52 30 55 19 2 25 8 21 18 -3 9 -13 13 -27 9 -15 -4 -17 -4
-6 3 8 5 117 12 243 16 l227 7 0 -30 c0 -26 -4 -31 -25 -31 -20 0 -25 -5 -25
-25 0 -20 5 -25 25 -25 20 0 25 5 25 25 0 24 3 25 59 25 54 0 60 -2 63 -23 2
-14 11 -23 26 -25 20 -3 23 0 20 25 -2 20 -8 28 -23 28 -15 0 -20 7 -20 25 0
22 -5 26 -45 31 -25 3 -39 7 -32 7 22 3 13 32 -10 32 -13 1 -61 3 -108 7 -47
3 -185 2 -308 -2 -190 -6 -221 -9 -211 -21 7 -8 10 -16 8 -19 -3 -2 -105 -7
-227 -11 -200 -6 -222 -9 -222 -24 0 -18 -52 -30 -132 -30 -37 0 -39 2 -36 28
2 21 9 28 31 30 18 2 27 9 27 21 0 24 42 31 178 31 l102 0 0 30 c0 34 -17 30
180 34 190 4 188 4 192 29 3 22 4 22 216 25 144 2 212 6 212 13 0 6 -6 9 -14
6 -8 -3 -17 0 -20 8 -3 10 10 16 47 21 29 5 57 8 64 7 6 0 14 6 18 14 3 10 1
13 -9 10 -8 -3 -27 -2 -43 3 -19 6 9 8 87 8 l115 -1 -70 -11 -70 -12 87 -8
c99 -9 328 3 288 15 -14 4 -52 8 -85 9 l-60 3 75 7 c41 4 90 6 109 4 39 -3 91
20 91 40 0 11 54 15 293 18 160 2 298 2 305 0 8 -3 12 -26 11 -76 -2 -83 -15
-216 -17 -168 -1 19 -7 32 -16 32 -13 0 -26 -113 -26 -227 0 -39 -2 -43 -25
-43 -20 0 -25 -5 -25 -24 0 -19 -6 -25 -27 -28 -23 -2 -28 -8 -28 -33 -1 -23
-6 -31 -25 -35 -18 -4 -25 -13 -25 -30 0 -21 -5 -25 -30 -25 l-30 0 -3 -77
c-3 -76 -4 -78 -28 -78 l-25 0 1 -317 c1 -175 1 -324 1 -330 -1 -7 -12 -13
-26 -13 -24 0 -25 -3 -25 -55 0 -52 1 -55 25 -55 24 0 24 -2 27 -83 3 -74 5
-82 23 -82 17 0 20 8 23 52 3 51 4 53 31 53 26 0 29 4 35 46 3 26 6 199 6 384
0 324 1 338 19 333 15 -4 19 3 25 43 3 26 6 66 6 90 0 40 2 44 24 44 21 0 25
-6 28 -32 2 -25 8 -34 26 -36 19 -3 22 1 22 27 0 25 4 30 28 33 19 2 28 9 30
24 4 29 42 36 197 33 l124 -2 3 -26 c2 -20 9 -26 28 -26 20 0 26 -6 28 -27 3
-24 8 -28 33 -28 30 0 30 0 27 53 -3 50 -4 52 -30 49 -23 -3 -27 1 -30 25 -3
26 -6 28 -55 31 -51 3 -53 4 -53 33 0 28 -2 29 -42 29 -24 0 -60 3 -81 7 -31
5 -38 9 -35 27 3 18 11 21 63 24 91 5 145 -5 145 -28 0 -13 8 -20 28 -22 22
-2 28 -8 30 -35 3 -29 7 -33 33 -33 24 0 29 -4 29 -25 0 -20 5 -25 25 -25 24
0 25 -3 26 -62 1 -35 3 -105 5 -155 4 -104 0 -123 -26 -123 -15 0 -20 -11 -26
-45 -6 -41 -9 -45 -35 -45 -15 0 -30 -4 -33 -9 -3 -5 -15 -7 -26 -4 -16 4 -20
0 -20 -22 l0 -27 -137 4 c-137 3 -137 3 -143 28 -4 15 -14 26 -27 28 -17 3
-21 12 -25 70 -9 105 -5 126 23 132 17 4 25 15 29 35 5 29 8 30 63 33 l57 3 0
-31 c0 -25 4 -30 25 -30 24 0 25 -3 25 -55 0 -52 1 -55 25 -55 25 0 25 1 25
85 0 84 0 85 -25 85 -20 0 -25 5 -25 25 l0 25 -115 0 c-113 0 -115 0 -115 -22
0 -20 -5 -23 -40 -23 -28 -1 -40 4 -43 15 -6 25 -19 -171 -15 -235 3 -53 6
-60 25 -63 18 -3 23 -12 29 -58 6 -48 9 -54 30 -54 20 0 24 -5 24 -30 l0 -30
190 0 190 0 0 -34 c0 -18 -3 -54 -6 -79 -6 -40 -9 -45 -24 -37 -16 9 -18 -1
-25 -110 -6 -106 -9 -120 -25 -120 -19 0 -30 -41 -30 -122 0 -44 -2 -48 -25
-48 -23 0 -25 -4 -25 -44 0 -70 -10 -106 -30 -106 -14 0 -19 -12 -25 -55 -5
-45 -10 -55 -25 -55 -14 0 -20 -9 -22 -32 -3 -29 -7 -33 -36 -36 -24 -2 -33
-8 -31 -20 1 -9 1 -31 0 -49 -1 -27 -5 -32 -28 -35 -22 -2 -28 -8 -28 -28 0
-18 -5 -25 -20 -25 -13 0 -22 -8 -25 -25 -3 -16 -13 -26 -27 -28 -13 -2 -23
-12 -25 -25 -2 -13 -13 -23 -28 -27 -15 -4 -25 -13 -26 -25 -1 -11 -5 -34 -9
-51 -7 -33 -31 -44 -91 -44 -19 0 -24 -5 -24 -25 0 -20 -5 -25 -25 -25 -20 0
-25 -5 -25 -24 0 -19 -6 -25 -27 -28 -22 -2 -27 -8 -25 -24 3 -19 -4 -22 -52
-28 -52 -7 -54 -9 -53 -34 2 -24 -1 -27 -33 -27 -31 0 -34 3 -35 30 0 27 3 30
30 30 25 0 31 4 33 27 3 21 9 27 30 30 19 2 27 9 27 23 0 12 9 21 25 25 16 4
26 14 28 27 2 14 12 23 25 25 16 2 23 11 25 31 3 21 9 27 27 27 20 0 23 6 30
56 6 53 8 55 33 52 24 -3 27 1 30 30 3 26 7 32 28 32 22 0 24 4 24 50 0 47 2
50 25 50 24 0 25 3 25 60 0 57 1 60 25 60 22 0 25 4 25 38 0 70 11 112 30 112
22 0 30 53 30 188 0 87 1 94 19 89 16 -4 19 3 25 47 7 64 8 259 0 279 -3 9
-13 13 -24 10 -17 -5 -20 -17 -22 -117 -3 -105 -4 -111 -24 -114 -20 -3 -22
-11 -29 -103 -6 -85 -10 -99 -25 -99 -18 0 -30 -51 -30 -131 0 -35 -3 -39 -25
-39 -24 0 -25 -3 -25 -55 0 -52 -1 -55 -25 -55 -22 0 -24 -4 -27 -57 -3 -57
-3 -58 -35 -61 -23 -2 -32 -8 -31 -20 1 -9 0 -32 0 -49 -2 -28 -6 -33 -26 -33
-21 0 -24 -6 -30 -50 -5 -41 -10 -50 -26 -50 -19 0 -22 -5 -24 -40 -1 -8 -12
-17 -26 -20 -20 -5 -25 -12 -25 -35 -1 -25 -5 -31 -28 -33 -21 -3 -27 -9 -27
-28 0 -20 -5 -24 -29 -24 -25 0 -30 -4 -33 -27 -2 -20 -9 -28 -23 -28 -13 0
-22 -8 -25 -25 -3 -16 -13 -26 -27 -28 -14 -2 -23 -12 -25 -25 -2 -16 -11 -23
-30 -25 -24 -3 -28 -8 -28 -33 0 -24 -4 -29 -25 -29 -20 0 -25 -5 -25 -24 0
-19 -6 -25 -27 -28 -20 -2 -29 -9 -31 -24 -3 -18 -12 -23 -58 -29 -49 -6 -54
-9 -54 -31 0 -20 -5 -24 -30 -24 -25 0 -30 -4 -30 -25 0 -21 -5 -25 -32 -26
-59 -2 -63 -4 -66 -27 -3 -20 -9 -22 -63 -22 -56 0 -59 1 -59 25 0 20 5 25 23
25 30 0 36 6 30 31 -3 12 -14 19 -29 19 -19 0 -24 -5 -24 -25 0 -21 -5 -25
-30 -25 -25 0 -30 -4 -30 -24 0 -23 -5 -25 -47 -28 -46 -3 -48 -4 -51 -35 -3
-27 -7 -33 -28 -33 -21 0 -24 5 -24 35 l0 35 -60 0 c-57 0 -60 1 -60 25 0 20
-5 25 -25 25 -20 0 -25 5 -25 25 0 20 -5 25 -24 25 -19 0 -25 6 -28 28 -2 21
-9 28 -31 30 -23 3 -28 8 -24 23 5 17 -1 19 -53 19 -53 0 -59 -2 -62 -22 -3
-23 -5 -23 -170 -26 -155 -2 -166 -4 -161 -21 4 -16 -4 -19 -69 -23 -40 -3
-199 -6 -353 -7 -153 -2 -283 -5 -288 -8 -4 -2 -3 -11 3 -18 16 -19 -34 -22
-470 -25 -339 -2 -707 -13 -610 -18 44 -3 69 -16 45 -25 -8 -4 -242 -7 -518
-8 -276 -1 -556 -4 -622 -6 -116 -5 -120 -6 -121 -28 -2 -22 0 -22 178 -29
213 -9 1562 -5 1663 4 39 4 58 8 43 8 -17 1 -28 8 -28 16 0 8 -12 17 -27 19
-35 5 46 8 432 16 280 5 310 8 307 22 -3 22 28 25 238 27 209 3 250 8 250 33
0 17 9 19 110 19 l110 0 0 -30 c0 -23 -5 -30 -19 -30 -19 0 -31 -34 -31 -86 0
-19 -5 -24 -24 -24 -21 0 -24 -6 -30 -50 -5 -40 -10 -50 -26 -50 -13 0 -20 -8
-22 -27 -2 -23 -8 -29 -35 -31 -24 -2 -33 -9 -35 -25 -3 -21 -7 -22 -153 -25
-82 -1 -156 -5 -164 -7 -9 -4 -11 -14 -7 -30 l6 -25 -77 0 c-43 0 -155 -3
-249 -7 -155 -5 -171 -8 -167 -23 8 -31 154 -39 426 -25 104 6 117 9 117 25 0
10 6 20 13 22 22 8 101 9 150 3 37 -5 47 -11 47 -26 0 -15 -10 -20 -50 -25
-41 -5 -49 -10 -45 -23 3 -10 -3 -20 -18 -26 -12 -6 -26 -19 -31 -31 -8 -18
-18 -21 -60 -21 -48 1 -133 -20 -123 -29 2 -3 16 0 31 5 22 9 26 8 26 -8 0
-17 -11 -20 -104 -26 -57 -4 -121 -4 -142 -1 -22 4 -51 2 -64 -3 -21 -9 -20
-10 13 -5 32 5 37 4 37 -13 0 -18 9 -21 83 -26 152 -12 175 -10 267 32 47 21
85 45 85 52 0 7 6 14 14 17 8 3 11 0 7 -7 -10 -16 -1 -14 44 9 22 11 39 25 37
31 -1 6 6 13 15 14 31 5 117 85 111 103 -3 12 -2 13 4 4 13 -18 56 29 47 51
-3 10 -1 17 6 17 6 0 8 -5 4 -13 -15 -23 96 75 117 105 12 16 24 49 26 71 l5
42 57 -2 c31 0 43 1 28 4 -25 4 -28 8 -25 36 2 24 8 33 25 35 18 3 22 -2 25
-30 2 -28 7 -34 31 -36 15 -2 27 -9 27 -18 0 -17 -5 -17 -31 -4 -10 6 -19 7
-19 3 0 -4 17 -16 38 -25 20 -10 75 -40 122 -67 47 -28 92 -48 100 -45 8 3 11
2 7 -2 -4 -4 8 -17 26 -30 32 -21 39 -22 352 -23 328 -1 382 3 377 32 -2 12 6
16 35 15 28 -1 65 14 143 56 109 60 160 108 160 153 0 17 5 23 23 22 21 0 21
-1 2 -9 -17 -7 -17 -9 -3 -9 19 -1 40 30 36 51 -2 9 13 13 52 13 49 0 55 -2
58 -22 2 -15 11 -23 29 -25 19 -2 27 -9 28 -25 1 -13 5 -26 9 -30 8 -8 12 -9
59 -11 22 -2 27 -7 27 -27 0 -21 5 -25 29 -25 24 0 29 -5 33 -30 2 -16 0 -31
-6 -33 -6 -2 0 -2 14 0 18 2 33 -4 49 -21 15 -16 29 -22 43 -18 14 3 19 1 14
-6 -4 -7 5 -9 30 -5 33 5 37 4 30 -12 -6 -16 -2 -17 41 -11 27 4 58 9 70 10
40 4 35 13 -9 20 -35 6 -48 14 -71 47 -30 44 -86 73 -120 64 -17 -5 -19 -4 -7
4 13 9 13 11 -2 11 -10 0 -18 3 -18 8 -1 4 -24 32 -52 62 -27 30 -47 49 -43
43 3 -7 1 -13 -5 -13 -7 0 -9 8 -5 20 5 15 0 22 -18 29 -14 6 -43 29 -65 53
-38 41 -42 42 -109 46 -74 4 -154 -12 -150 -30 1 -7 -7 -13 -18 -15 -17 -4
-18 -2 -5 7 13 10 12 11 -3 6 -10 -3 -22 -6 -26 -6 -4 0 -6 -14 -3 -30 3 -24
1 -29 -11 -24 -9 3 -25 1 -36 -6 -16 -8 -21 -8 -21 2 -1 7 -10 2 -21 -11 -15
-19 -17 -26 -7 -32 9 -6 4 -9 -15 -9 -19 0 -31 -7 -39 -25 -6 -14 -18 -25 -27
-25 -14 0 -14 -2 -1 -11 12 -8 10 -9 -7 -4 -13 4 -41 -2 -69 -14 -26 -12 -54
-21 -63 -21 -11 0 -12 -3 -4 -8 7 -4 -34 -6 -90 -4 -73 2 -98 0 -87 -7 11 -8
4 -11 -30 -11 -35 -1 -41 -3 -27 -11 37 -22 17 -31 -63 -27 -44 2 -80 6 -80
11 0 4 9 7 19 7 11 0 23 5 26 10 3 6 -5 10 -19 10 -14 0 -27 4 -30 9 -3 4 -17
6 -31 3 -21 -4 -25 -1 -25 20 0 23 3 25 66 26 58 2 65 0 54 -13 -10 -12 -9
-16 4 -21 9 -4 20 -4 23 0 4 3 -1 6 -11 6 -14 0 -11 8 15 48 18 26 34 49 35
51 2 2 11 -2 21 -10 9 -8 14 -9 11 -3 -4 6 6 10 25 10 18 0 52 10 77 22 25 12
37 20 28 17 -10 -2 -18 0 -18 6 0 7 10 9 24 5 16 -4 56 9 130 44 59 28 115 50
124 50 15 0 15 2 2 11 -12 8 -10 9 8 4 17 -5 29 -1 43 14 10 11 38 25 62 32
51 13 83 41 97 85 11 32 14 34 56 34 40 0 50 5 92 46 26 25 41 43 35 39 -8 -4
-13 0 -13 10 0 10 5 15 14 12 8 -3 40 22 77 61 192 200 185 192 160 192 -16 0
-21 -4 -18 -14 3 -8 -1 -20 -9 -27 -18 -15 -32 -3 -16 13 7 7 12 20 12 31 0
15 5 17 28 13 31 -7 34 -2 136 217 30 65 64 131 76 146 11 16 20 36 20 44 0 8
14 45 31 81 20 43 30 77 27 96 -2 16 -1 27 3 24 4 -2 5 32 2 76 -6 77 -5 80
16 80 22 0 30 -25 9 -32 -7 -3 -4 -7 8 -10 15 -4 20 0 20 16 4 288 3 272 27
285 l22 11 -24 -6 c-17 -4 -21 -3 -16 6 5 8 20 10 44 6 27 -5 32 -4 21 4 -12
8 -9 9 11 4 18 -4 40 2 65 16 22 12 30 18 19 14 -49 -16 -55 -16 -55 -1 0 16
64 29 78 15 7 -7 131 17 142 29 3 3 -7 3 -22 -1 -25 -6 -28 -4 -28 19 0 20 5
25 24 25 14 0 28 -4 31 -10 3 -5 12 -10 18 -10 8 0 8 3 -2 9 -8 5 1 8 28 7 37
-1 46 5 101 59 42 42 60 67 60 85 0 16 11 34 32 52 l33 27 0 101 c0 89 -2 103
-19 116 -11 8 -24 14 -30 14 -5 0 -1 -7 10 -15 19 -14 19 -14 -1 -9 -19 5 -21
0 -24 -100 l-3 -106 29 0 28 0 -25 -20 c-25 -19 -25 -19 -28 0 -2 14 -11 20
-28 20 -20 0 -24 -5 -24 -30 0 -25 -4 -30 -25 -30 -20 0 -25 -5 -25 -24 0 -19
-6 -25 -27 -28 -22 -2 -29 -9 -31 -31 -2 -19 -9 -27 -20 -26 -9 1 -34 1 -54 0
-30 -1 -38 -5 -38 -20 0 -21 -40 -31 -124 -31 l-49 0 7 38 c3 20 6 45 6 54 0
10 9 18 23 20 22 3 22 5 22 163 0 153 -1 160 -20 160 -16 0 -22 10 -29 53 -8
45 -12 52 -32 52 -21 0 -24 5 -24 36 0 21 -4 33 -10 29 -19 -12 -47 5 -45 28
1 16 9 23 27 25 15 2 28 11 31 21 6 25 -41 31 -229 31 l-144 0 0 24 c0 20 6
25 44 30 36 6 45 11 48 29 2 14 10 22 23 23 40 2 45 4 45 23 0 21 35 31 111
31 48 0 49 1 49 30 0 29 2 30 44 30 59 0 75 7 69 31 -5 17 0 19 48 19 121 0
219 12 219 27 0 12 -11 14 -45 11 -25 -2 -45 0 -45 4 0 7 109 16 127 10 7 -2
15 -12 18 -23 5 -14 16 -19 43 -19 l37 -1 -52 -22 c-29 -13 -54 -25 -57 -28
-3 -2 18 -6 46 -7 49 -2 106 13 168 45 14 7 32 13 40 13 8 0 51 12 95 26 73
24 89 25 187 19 167 -10 252 12 313 81 14 15 71 39 180 74 169 54 222 79 269
129 25 26 28 35 23 73 -10 72 -63 98 -202 98 -102 0 -508 -27 -600 -39 -38 -6
-140 -15 -225 -21 -185 -13 -589 -73 -680 -100 -104 -30 -272 -52 -387 -48
l-105 3 -28 -31 -27 -31 -137 -8 c-137 -7 -137 -7 -125 13 12 19 15 19 42 6
15 -9 34 -13 40 -10 9 3 9 5 0 5 -15 1 1 50 45 139 17 33 33 71 37 84 17 54
38 88 56 88 17 0 86 75 82 89 -1 4 12 8 29 9 17 2 51 11 76 22 24 11 51 20 59
20 8 0 12 4 9 9 -4 5 3 7 13 4 11 -3 44 6 73 19 29 13 74 30 100 37 26 8 53
20 60 29 12 13 10 14 -10 3 -13 -7 -26 -10 -30 -7 -12 12 9 18 95 26 54 5 105
16 133 29 25 11 39 21 32 21 -7 0 -22 -5 -33 -10 -15 -9 -19 -7 -19 6 0 14 9
16 73 11 47 -4 65 -3 52 3 -14 6 -3 7 35 4 44 -5 68 0 120 20 36 14 59 25 52
26 -7 0 -29 -7 -49 -15 -46 -20 -53 -19 -53 5 0 19 -7 20 -103 20 -57 0 -145
-3 -195 -6 -73 -6 -89 -10 -85 -21 4 -11 8 -12 13 -2 5 6 15 9 24 6 39 -15 8
-25 -94 -32 l-110 -7 0 -29 c0 -27 -3 -29 -39 -29 -80 0 -131 -12 -131 -30 0
-14 -12 -19 -55 -25 -45 -5 -55 -10 -55 -26 0 -13 -7 -19 -24 -19 -21 0 -25 6
-31 49 -5 37 -11 48 -23 47 -15 -1 -18 16 -23 134 -4 74 -7 138 -8 142 0 3
-10 4 -21 1 -19 -5 -20 0 -20 64 0 39 -3 91 -6 116 -6 40 -10 46 -32 49 -24 3
-26 7 -29 58 -7 129 -14 161 -31 158 -11 -2 -18 4 -19 17 -12 125 -15 135 -33
135 -15 0 -20 11 -25 65 -6 53 -11 65 -25 65 -19 0 -30 41 -30 113 0 33 -3 37
-25 37 -24 0 -25 3 -25 60 0 60 0 60 -29 60 -28 0 -30 2 -36 55 -6 44 -11 55
-26 55 -14 0 -20 10 -25 49 -5 41 -10 50 -28 53 -18 3 -21 10 -22 58 -1 52 -2
55 -27 58 -25 3 -27 7 -27 52 0 46 -2 49 -27 52 -24 2 -29 8 -31 36 -3 27 -7
32 -23 27 -13 -4 -19 -2 -19 8 0 10 7 13 20 10 11 -3 20 -1 20 5 0 6 -10 12
-22 14 -18 2 -24 11 -26 36 -3 28 -7 32 -33 32 -26 0 -29 3 -29 31 0 28 2 30
33 27 24 -2 33 -8 35 -25 3 -17 10 -23 28 -23 21 0 24 -5 24 -36 0 -31 3 -36
20 -31 11 3 23 1 26 -4 3 -5 14 -9 24 -9 12 0 20 -8 22 -22 2 -17 11 -24 31
-26 21 -3 27 -9 27 -28 0 -19 5 -24 25 -24 20 0 25 -5 25 -24 0 -21 6 -25 33
-28 24 -2 32 -8 32 -23 0 -14 8 -21 28 -23 24 -3 27 -8 27 -38 0 -29 3 -34 24
-34 18 0 25 -6 28 -22 2 -17 11 -24 31 -26 21 -3 27 -9 27 -28 0 -19 5 -24 25
-24 20 0 25 -5 25 -24 0 -21 6 -25 33 -28 27 -2 33 -8 35 -30 3 -22 9 -28 28
-28 19 0 24 -5 24 -25 0 -20 5 -25 25 -25 21 0 25 -5 25 -29 0 -25 4 -30 28
-33 21 -2 28 -9 30 -30 3 -22 8 -28 28 -28 20 0 25 -4 22 -22 -2 -19 2 -24 25
-26 21 -3 27 -9 27 -28 0 -20 5 -24 33 -25 17 -1 43 -5 57 -9 24 -8 24 -8 3
-9 -45 -2 -25 -29 26 -36 47 -6 50 -9 53 -38 2 -24 8 -32 23 -32 13 0 20 -7
20 -20 0 -14 8 -21 27 -23 21 -3 27 -9 30 -30 2 -19 10 -28 25 -30 14 -2 23
-11 25 -25 2 -18 11 -23 41 -25 33 -3 38 -6 35 -25 -2 -17 3 -23 25 -25 21 -3
27 -9 27 -27 0 -20 6 -24 48 -30 44 -6 48 -9 47 -33 0 -22 5 -28 28 -30 21 -3
27 -9 27 -28 0 -21 5 -24 35 -24 31 0 35 -3 35 -25 0 -20 5 -25 25 -25 20 0
25 -5 25 -24 0 -19 6 -25 27 -28 20 -2 29 -10 33 -28 5 -24 9 -26 73 -33 11
-1 17 -10 17 -24 0 -19 5 -23 30 -23 20 0 30 5 30 15 0 9 -57 73 -126 143 -69
70 -123 121 -119 115 3 -7 1 -13 -5 -13 -7 0 -9 7 -6 16 7 18 -115 147 -149
158 -12 3 -28 19 -37 34 -9 16 -39 49 -66 74 -37 35 -58 47 -94 52 -38 6 -48
12 -58 36 -7 16 -19 35 -28 42 -12 10 -14 10 -8 1 4 -8 2 -13 -4 -13 -7 0 -9
8 -5 20 5 15 0 22 -21 30 -14 6 -35 22 -46 35 -11 14 -24 23 -29 20 -5 -4 -7
0 -4 7 3 7 -62 79 -152 168 -87 85 -144 140 -128 121 l30 -34 -25 6 c-14 4
-33 7 -42 7 -13 0 -18 8 -18 29 0 17 -6 31 -16 35 -24 9 -31 7 -14 -4 13 -8
12 -10 -2 -10 -10 0 -18 5 -18 11 0 6 -52 67 -116 135 -112 119 -119 124 -158
125 -38 0 -45 5 -106 77 -124 145 -142 163 -155 152 -12 -10 -25 -4 -25 12 0
5 6 6 13 2 20 -12 -36 46 -76 78 -22 18 -35 23 -31 14 7 -18 -11 -22 -21 -6
-4 6 -15 8 -26 5 -15 -5 -19 -1 -19 20 0 25 0 25 27 8 15 -10 24 -12 19 -5
-12 21 -62 41 -84 35 -14 -3 -22 -1 -22 7 0 7 7 10 17 5 11 -4 7 5 -12 25 -24
25 -29 38 -26 69 2 29 -4 45 -24 69 -15 18 -32 32 -39 32 -7 0 -59 47 -117
105 -65 66 -115 109 -134 114 -34 9 -41 1 -25 -28 8 -17 8 -21 -3 -21 -11 0
-14 23 -14 103 0 72 -5 112 -16 137 -14 29 -15 31 -11 8 5 -21 2 -28 -10 -28
-18 0 -22 40 -5 57 14 14 -15 125 -44 173 -36 59 -73 143 -81 184 -9 49 -25
90 -32 83 -3 -3 -1 -15 6 -26 9 -18 8 -21 -10 -21 -17 0 -21 6 -20 28 4 62 1
72 -25 72 -17 0 -25 6 -25 18 0 9 -3 28 -7 41 l-6 23 28 -18 c15 -9 31 -27 35
-38 6 -15 9 -16 9 -5 1 9 -21 35 -48 57 -50 43 -68 52 -55 30 4 -7 4 -10 0 -6
-4 3 -9 30 -11 60 -4 47 -8 57 -42 85 -41 36 -43 36 -60 25 -13 -8 -16 -23
-14 -74 1 -35 3 -38 31 -38 27 0 30 -3 30 -30 0 -25 4 -30 25 -30 26 0 25 2
29 -75 1 -13 9 -21 23 -23 18 -3 23 -12 29 -58 5 -43 10 -54 24 -54 18 0 22
-17 32 -135 2 -22 8 -30 23 -30 18 0 21 -8 25 -80 4 -69 7 -80 23 -77 24 4 25
-4 31 -168 3 -80 5 -150 6 -157 0 -6 12 -13 28 -15 l27 -3 3 -300 c3 -346 -1
-405 -28 -405 -11 0 -20 9 -23 23 -2 12 -5 0 -6 -28 -2 -53 -12 -159 -15 -162
-1 -1 -34 1 -74 4 -67 5 -72 8 -72 29 0 21 -5 23 -52 26 -46 3 -53 6 -56 26
-3 18 -10 22 -40 23 -20 1 -44 3 -52 4 -8 1 -20 3 -27 4 -6 0 -9 9 -6 20 4 15
-3 19 -34 24 -21 4 -57 7 -80 7 -36 0 -43 3 -43 19 0 20 -33 27 -170 34 -42 3
-45 5 -42 29 3 25 2 25 -89 31 -51 4 -114 7 -141 7 -36 0 -48 4 -48 15 0 8 10
16 23 17 12 0 -7 4 -43 8 -36 4 -173 6 -305 5 -132 -2 -324 -4 -427 -4 -181
-1 -186 -2 -181 -21 5 -19 14 -20 194 -20 186 0 189 0 189 -21 0 -16 -4 -19
-17 -14 -37 15 -56 15 -22 0 l36 -16 -5 -117 -5 -118 29 1 29 0 3 -105 c2 -58
5 -106 5 -107 1 0 27 -3 57 -5 l55 -3 3 50 c1 28 -1 89 -5 137 -7 74 -10 86
-23 78 -13 -9 -13 -11 0 -20 13 -8 12 -10 -2 -10 -15 0 -18 9 -18 58 0 31 -3
74 -6 95 -6 33 -10 37 -35 37 -27 0 -29 3 -29 40 l0 40 78 0 c44 0 154 -3 245
-7 151 -6 167 -8 167 -24 0 -10 -9 -19 -22 -22 -18 -3 -17 -5 7 -6 23 -1 27
-3 15 -11 -10 -6 25 -9 105 -7 107 2 120 0 123 -15 4 -23 -44 -24 -72 -3 -11
8 -27 15 -35 15 -8 0 3 -9 24 -21 29 -15 62 -22 120 -23 127 -4 125 -4 125
-26 0 -11 -2 -20 -5 -20 -3 0 -23 9 -45 20 -40 21 -69 28 -37 9 42 -25 131
-59 112 -43 -19 16 -18 16 20 10 22 -3 57 -6 77 -6 30 0 37 -4 40 -22 3 -20
10 -23 56 -26 48 -3 52 -5 52 -29 0 -20 -4 -24 -17 -18 -37 15 -47 16 -28 4
13 -8 47 -12 93 -10 l72 2 0 -30 c0 -36 -1 -36 -43 -16 -29 15 -30 15 -12 0
26 -21 92 -38 128 -32 24 3 31 0 38 -22 8 -22 15 -26 52 -26 36 0 42 -3 45
-22 3 -21 9 -23 63 -23 48 0 59 -3 59 -17 0 -23 6 -14 14 22 5 22 4 26 -4 15
-7 -11 -10 -3 -10 32 0 49 7 62 29 49 10 -7 10 -13 2 -29 -6 -11 -11 -24 -11
-29 1 -4 8 5 17 21 12 23 16 67 18 198 2 93 6 172 9 175 3 4 6 -7 6 -24 0 -17
6 -33 13 -36 11 -4 15 36 20 212 4 119 4 234 2 256 -3 29 -3 33 3 15 7 -22 9
-23 15 -7 4 10 11 15 17 12 6 -4 8 -10 5 -15 -3 -5 3 -15 13 -22 9 -7 40 -39
67 -71 44 -51 53 -57 77 -52 22 5 28 3 28 -10 0 -15 -2 -16 -17 -4 -11 9 -10
3 6 -18 20 -30 41 -48 26 -23 -3 6 3 10 14 10 17 0 21 -6 21 -30 0 -26 4 -30
26 -30 25 0 26 -2 22 -53 -3 -52 -3 -53 23 -49 25 4 27 1 33 -42 4 -25 4 -51
1 -57 -7 -11 23 -104 31 -96 2 2 -3 20 -11 40 -15 37 -15 37 10 37 23 0 25 -3
25 -50 0 -48 1 -50 29 -50 27 0 29 -3 35 -54 6 -44 10 -54 23 -49 22 8 33 -15
33 -69 0 -41 3 -47 23 -50 19 -3 22 -10 25 -55 3 -49 5 -53 28 -53 23 0 24 -3
24 -55 0 -52 1 -55 25 -55 23 0 25 -4 25 -42 0 -77 11 -118 30 -118 15 0 19
-12 25 -60 7 -58 8 -60 36 -60 l28 0 3 -82 c3 -77 5 -83 26 -86 18 -3 22 -10
22 -36 0 -18 3 -54 6 -80 5 -36 11 -46 25 -46 15 0 19 -8 20 -37 1 -21 3 -45
4 -53 1 -8 3 -41 4 -74 1 -52 3 -58 20 -53 23 6 31 -30 31 -145 0 -74 1 -78
23 -78 22 0 23 -1 23 -135 l0 -136 -19 58 c-10 32 -21 74 -23 93 -3 19 -7 36
-9 39 -10 9 -4 -128 8 -204 14 -82 13 -110 -4 -100 -5 4 -6 -1 -3 -9 3 -8 -1
-25 -9 -38 -8 -13 -18 -34 -22 -48 -4 -14 -25 -62 -46 -107 -22 -45 -39 -84
-39 -88 0 -3 -12 -33 -27 -66 -26 -58 -28 -60 -62 -57 -31 3 -36 7 -44 38 -4
19 -7 44 -6 55 7 75 -29 253 -59 287 -14 16 -5 18 144 21 l159 3 -167 2 c-147
2 -168 4 -178 20 -10 15 -11 14 -7 -8 3 -14 1 -36 -4 -50 -5 -15 -6 26 -4 100
2 86 1 113 -5 85 -7 -31 -8 -18 -6 55 2 52 1 80 -1 63 -3 -24 -9 -33 -22 -33
-15 0 -19 12 -24 83 -4 45 -7 108 -7 139 0 48 -2 56 -16 51 -25 -9 -34 16 -34
95 l0 72 -29 0 c-29 0 -30 2 -33 53 -3 45 -6 52 -25 55 -18 3 -22 12 -28 62
-6 50 -10 60 -28 63 -22 4 -22 4 1 6 13 0 22 7 22 17 0 10 -7 14 -22 12 -19
-2 -24 2 -26 30 -3 26 -7 32 -28 32 -22 0 -24 4 -24 50 0 46 -2 50 -24 50 -21
0 -25 6 -28 33 -3 28 -7 32 -35 35 -27 3 -33 8 -33 27 0 17 -6 25 -22 27 -13
2 -23 10 -23 18 -1 24 -15 40 -35 40 -12 0 -20 8 -22 23 -2 14 -11 23 -25 25
-15 2 -23 10 -23 23 0 10 -6 20 -12 20 -7 1 -17 2 -23 4 -5 1 -25 3 -42 3 -29
2 -33 5 -33 31 0 27 -3 29 -52 35 -29 3 -68 6 -85 6 -26 0 -33 4 -33 20 0 24
0 24 -170 21 -124 -2 -452 14 -500 24 -22 5 -22 4 -5 -4 14 -7 -13 -10 -92
-10 l-111 -1 -7 50 c-6 40 -11 50 -26 50 -14 0 -19 -7 -19 -25 l0 -25 -119 0
c-161 0 -211 -7 -211 -31 0 -16 -9 -19 -57 -21 -32 -1 -67 -3 -78 -4 -11 -1
-37 -2 -57 -3 -30 -1 -38 -5 -38 -20 0 -14 10 -20 38 -25 20 -3 242 -6 492 -6
250 -1 473 -5 495 -9 22 -5 34 -9 27 -10 -7 0 -10 -5 -7 -11 8 -13 -1 -13 -25
0 -13 7 -19 6 -23 -4 -3 -8 -3 -16 0 -19 3 -3 91 -6 196 -6 106 -1 217 -4 248
-7 49 -5 56 -9 52 -25 -5 -16 0 -19 28 -19 19 0 58 -3 87 -6 46 -6 52 -9 52
-30 0 -22 4 -24 50 -24 46 0 50 -2 50 -24 0 -19 6 -25 27 -28 22 -2 28 -8 28
-28 0 -20 5 -25 25 -25 22 0 25 -5 28 -38 3 -31 7 -37 27 -37 18 0 24 -6 24
-22 0 -13 1 -33 1 -45 0 -17 7 -22 33 -25 28 -3 32 -7 35 -36 3 -27 7 -32 23
-27 13 4 19 2 19 -9 0 -10 -9 -16 -22 -17 -22 -1 -22 -1 2 -8 17 -5 26 -16 30
-36 4 -22 11 -30 25 -30 17 0 21 -8 25 -60 4 -52 8 -60 25 -60 22 0 32 -30 34
-107 1 -43 3 -48 24 -45 21 2 22 -2 27 -83 5 -82 6 -85 30 -85 25 0 25 -2 34
-112 8 -103 10 -112 30 -115 20 -3 21 -8 22 -178 0 -139 4 -186 18 -227 20
-57 47 -88 71 -80 24 10 18 -17 -7 -28 -12 -6 -27 -26 -33 -45 -7 -19 -19 -36
-27 -38 -11 -2 -14 -10 -10 -24 3 -11 -1 -24 -9 -29 -8 -5 -159 -9 -336 -9
-308 0 -323 -1 -323 -19 0 -25 -50 -31 -250 -31 -194 0 -251 -7 -248 -29 3
-14 -15 -17 -127 -22 -71 -4 -136 -7 -142 -8 -7 0 -13 -9 -13 -20 0 -15 -11
-19 -67 -24 -38 -4 -89 -7 -115 -7 -40 0 -45 -2 -41 -19 6 -24 -30 -30 -207
-32 -74 -1 -140 -3 -147 -6 -7 -3 -13 -16 -13 -29 0 -23 -4 -24 -62 -25 -35
-1 -70 -2 -78 -3 -8 -2 -32 -3 -52 -4 -30 -2 -38 -6 -38 -21 0 -21 -49 -31
-151 -31 -52 0 -58 -2 -61 -22 -3 -21 -9 -23 -85 -26 -81 -3 -83 -3 -83 -27 0
-23 -4 -25 -42 -25 -24 0 -60 -3 -81 -6 -31 -6 -36 -10 -32 -25 7 -20 6 -20
-95 -24 -17 0 -26 -7 -28 -22 -3 -22 -40 -33 -114 -33 -35 0 -38 -2 -38 -29 0
-28 -2 -29 -60 -36 -48 -6 -60 -10 -60 -25 0 -14 -11 -19 -54 -24 -46 -6 -55
-11 -58 -29 -3 -22 -7 -24 -65 -26 -28 -1 -33 -5 -33 -26 0 -22 -4 -24 -57
-27 -50 -3 -58 -6 -58 -23 0 -14 -8 -21 -30 -25 -24 -4 -31 -11 -33 -33 -3
-21 -9 -27 -28 -27 -24 0 -24 1 -24 88 0 48 3 110 6 138 5 42 10 51 24 47 15
-4 18 10 23 133 9 177 9 633 0 848 -6 156 -7 167 -25 163 -15 -4 -18 1 -20 31
-1 21 -2 44 -4 52 -1 8 -2 56 -3 107 -1 87 -2 92 -23 95 -13 2 -23 10 -24 18
-1 8 -2 57 -2 108 -2 91 -2 92 -27 92 -24 0 -25 3 -26 63 -2 91 -2 92 -26 95
-19 3 -23 10 -23 41 0 21 -3 59 -6 85 -6 43 -9 46 -35 46 -28 0 -29 1 -29 55
l0 55 34 0 c28 0 35 4 38 22 2 17 10 23 33 25 86 6 115 14 115 33 0 16 9 19
53 22 50 3 52 4 52 33 0 35 -14 40 -93 30 l-54 -7 5 -46 c2 -26 3 -39 0 -29
-4 15 -14 17 -66 15 -58 -3 -62 -5 -59 -25 3 -18 -2 -23 -19 -23 -16 0 -20 5
-16 20 3 11 1 20 -4 20 -5 0 -9 -9 -9 -19 0 -16 -10 -20 -58 -26 l-57 -6 3
-44 c3 -36 8 -44 25 -47 19 -3 22 -10 25 -60 3 -52 5 -58 25 -58 20 0 22 -6
24 -63 5 -121 12 -147 37 -147 20 0 24 -6 30 -46 3 -26 6 -78 6 -115 0 -61 2
-69 19 -69 24 0 31 -40 31 -197 l0 -123 -24 0 c-20 0 -25 -6 -28 -32 -3 -28
-7 -32 -33 -33 l-29 0 -3 -96 c-4 -150 -7 -164 -32 -167 -18 -3 -21 -10 -21
-45 0 -76 -11 -117 -31 -117 -12 0 -19 9 -21 28 -2 19 -9 28 -26 30 -12 2 -20
7 -17 12 3 5 12 7 20 3 9 -3 15 1 15 9 0 9 -9 14 -22 14 -21 -1 -23 4 -26 51
-3 48 -5 53 -26 53 -15 0 -23 -6 -23 -17 1 -10 0 -44 -1 -75 l-2 -58 -85 0
-85 0 -1 63 c-2 91 -2 92 -24 92 -19 0 -20 -7 -20 -100 0 -96 1 -100 23 -103
20 -3 22 -8 22 -75 0 -106 9 -147 31 -147 16 0 19 -10 21 -87 3 -81 5 -88 24
-91 19 -3 22 -12 28 -79 8 -95 8 -167 -1 -216 -5 -31 -9 -38 -27 -35 -18 3
-22 11 -26 63 -4 52 -8 60 -25 60 -19 0 -20 8 -25 130 -5 122 -6 130 -25 130
-13 0 -21 7 -22 20 -1 11 -5 50 -8 86 -5 58 -9 66 -24 62 -15 -4 -19 4 -25 43
-3 26 -6 66 -6 90 0 36 -3 44 -19 44 -23 0 -31 35 -31 131 l0 69 -30 0 -30 0
0 -135 0 -135 30 0 c30 0 30 0 30 -59 0 -102 10 -151 31 -151 16 0 19 -8 19
-60 0 -53 -2 -60 -20 -60 -29 0 -27 -38 3 -42 16 -2 23 -11 25 -31 2 -18 9
-27 21 -27 16 0 19 -13 25 -90 7 -79 10 -90 26 -90 15 0 20 -10 24 -42 3 -24
4 -54 3 -68 0 -14 0 -67 1 -117 2 -92 2 -93 27 -93 20 0 25 -5 25 -25 0 -20 5
-25 24 -25 23 0 24 1 28 130 2 71 6 131 8 133 3 3 28 8 56 12 l52 7 7 -59 c5
-49 10 -59 26 -59 10 0 20 5 21 11 0 5 2 15 3 20 2 6 3 16 4 23 0 6 10 12 21
12 29 0 27 38 -2 42 -23 3 -24 5 -27 78 -1 25 -5 30 -26 30 -25 0 -26 2 -23
58 l3 57 80 0 c75 0 80 -1 83 -22 2 -17 10 -23 27 -23 17 0 25 6 27 23 2 16
10 22 28 22 l25 0 0 -135 c0 -132 0 -135 -22 -138 -21 -3 -23 -9 -25 -70 0
-37 -2 -71 -3 -77 -2 -5 -3 -25 -4 -42 l-1 -33 -72 0 c-108 0 -148 -9 -148
-31 0 -18 -9 -19 -119 -19 -65 0 -139 -3 -165 -6 -40 -6 -47 -10 -43 -25 3
-11 2 -19 -1 -19 -4 0 -66 -3 -139 -7 l-131 -6 -4 29 c-2 21 -9 30 -25 32 -17
3 -23 12 -28 53 -5 39 -11 49 -25 49 -16 0 -20 11 -26 61 -6 58 -8 61 -31 56
-27 -5 -31 1 -36 58 -3 32 -8 41 -26 43 -16 3 -21 10 -21 33 l0 29 84 0 c80 0
85 1 88 23 3 21 8 22 93 25 110 3 115 5 115 37 0 24 3 25 53 25 65 0 77 8 66
39 -9 23 -11 24 -92 18 -45 -4 -94 -7 -109 -7 -21 0 -28 -5 -28 -20 0 -18 -7
-20 -62 -21 -93 -2 -93 -2 -96 -31 -2 -20 -9 -28 -22 -28 -13 0 -20 9 -23 28
-4 26 -4 26 -6 -4 -1 -30 -3 -31 -52 -37 -29 -4 -56 -4 -60 -1 -5 3 -9 21 -9
40 0 29 -3 34 -23 34 -20 0 -23 5 -24 42 l-2 41 36 -36 c19 -20 40 -37 46 -37
6 0 8 1 6 3 -3 1 -33 29 -69 62 -35 33 -58 52 -50 41 13 -16 12 -18 -5 -14
-19 3 -20 10 -15 88 3 47 5 142 5 213 0 70 3 127 8 127 4 0 6 15 6 33 l-1 32
-9 -30 c-5 -20 -7 4 -6 72 2 56 5 104 7 107 3 2 23 7 45 11 l40 8 -25 -27
c-21 -24 -25 -25 -30 -10 -6 16 -7 16 -13 1 -3 -8 -1 -18 6 -20 9 -3 8 -9 -2
-23 -8 -10 1 -2 20 18 19 20 61 50 94 67 33 16 56 30 52 31 -5 0 -18 -5 -29
-11 -16 -9 -19 -8 -16 3 3 8 21 13 49 13 26 0 54 7 69 18 14 10 19 17 10 17
-9 0 -10 3 -4 9 5 5 41 11 79 13 68 3 70 4 73 31 4 30 13 31 167 32 54 0 60 2
63 21 4 28 31 33 182 35 161 3 200 8 193 25 -3 8 -9 14 -15 14 -5 0 -6 -4 -3
-10 3 -5 -1 -10 -9 -10 -9 0 -16 6 -16 14 0 12 -33 15 -182 18 -101 2 -213 1
-250 0 -64 -4 -68 -5 -68 -28 0 -23 -3 -24 -67 -24 -101 0 -143 -9 -143 -30 0
-16 -13 -19 -85 -25 l-85 -7 0 -29 c0 -28 -1 -29 -55 -29 -52 0 -55 -1 -55
-25 0 -23 -4 -24 -62 -27 -58 -3 -63 -5 -60 -24 3 -19 -4 -22 -53 -29 -45 -5
-55 -10 -55 -25 0 -16 -10 -21 -50 -26 -44 -6 -50 -9 -50 -30 0 -21 -5 -23
-57 -26 -50 -3 -58 -6 -58 -23 0 -14 -9 -21 -30 -25 -25 -5 -30 -10 -27 -32 2
-25 0 -27 -52 -33 -49 -6 -55 -10 -53 -29 2 -16 -4 -22 -25 -24 -34 -4 -35 4
-6 27 20 17 21 28 24 177 2 87 8 211 13 274 29 314 33 398 28 570 -3 130 -12
233 -30 346 -34 207 -113 509 -171 647 -38 90 -145 312 -177 367 -32 56 -99
199 -99 213 0 12 8 17 31 17 26 0 30 3 27 23 -2 18 2 22 22 23 14 0 51 4 83 8
47 6 57 11 57 27 0 16 7 19 44 19 58 0 75 7 69 29 -4 17 6 19 107 26 106 7
111 8 108 29 -3 20 1 21 110 24 l112 3 0 28 0 29 218 8 c119 4 206 10 193 13
-14 4 -26 12 -29 19 -3 9 39 12 175 12 263 0 433 10 433 26 0 7 10 15 23 17
12 2 -3 5 -33 7 -53 3 -53 3 -20 11 23 5 0 7 -67 4 -57 -2 -105 1 -108 5 -3 4
5 6 17 4 22 -4 22 -4 -1 6 -17 7 -27 7 -37 -1 -9 -8 -121 -12 -351 -14 -381
-4 -420 -6 -448 -24 -19 -11 -19 -12 4 -5 53 14 81 11 81 -9 0 -18 -6 -19 -85
-15 -47 2 -85 1 -85 -3 0 -4 -8 -5 -17 -3 -10 3 -40 -2 -68 -10 -77 -24 -74
-3 7 44 40 23 96 60 125 81 29 22 55 39 58 39 17 0 184 124 178 133 -3 6 -1 7
4 4 6 -4 17 1 24 10 24 28 109 57 93 32 -12 -19 28 8 76 52 l45 41 -42 -32
c-24 -17 -45 -36 -49 -41 -3 -5 -14 -7 -24 -4 -9 3 -30 1 -46 -5 l-29 -10 25
19 c14 11 63 41 110 67 47 26 111 65 143 87 75 50 83 44 10 -8 -92 -66 -103
-80 -18 -23 142 94 447 408 429 441 -4 6 -4 9 1 5 11 -11 35 11 29 26 -3 7 2
19 11 26 21 17 19 55 -4 71 -25 19 -18 89 9 89 19 0 30 -36 30 -101 0 -31 4
-38 23 -41 19 -3 23 -10 27 -58 4 -47 8 -55 25 -55 18 0 20 -8 25 -95 3 -52
11 -104 18 -115 11 -18 12 -18 6 6 -4 18 -1 28 9 32 11 4 16 -4 19 -36 2 -23
1 -43 -4 -45 -4 -2 -8 -8 -8 -13 0 -6 4 -8 8 -5 4 2 8 -12 8 -32 0 -78 11
-150 27 -173 10 -13 17 -19 17 -13 0 5 -5 15 -12 22 -6 6 -12 25 -13 42 -2 25
2 30 22 30 l24 0 -5 -202 c-2 -112 -1 -174 3 -138 l8 65 1 -53 c1 -33 6 -51
12 -47 6 4 9 13 8 20 -2 8 2 14 7 14 6 1 11 -32 13 -74 3 -75 3 -75 -22 -75
-19 0 -26 -5 -26 -20 0 -15 7 -20 25 -20 l25 0 0 -170 c0 -170 0 -170 -22
-170 -21 0 -23 -5 -24 -57 0 -32 -2 -131 -3 -220 l-2 -163 -30 0 c-32 0 -30 8
-33 -165 l-1 -60 33 -3 c31 -3 32 -2 32 32 0 30 3 35 28 38 19 2 28 9 30 24 2
17 12 23 47 28 35 6 44 11 47 29 2 16 11 23 31 25 21 3 27 9 27 28 0 21 5 24
43 26 23 0 48 1 55 1 6 -1 12 10 12 23 0 20 5 24 30 24 25 0 30 4 30 24 0 20
6 24 46 30 26 3 59 6 75 6 23 0 28 5 31 28 3 23 8 27 41 30 35 3 37 2 37 -27
0 -34 26 -44 33 -13 8 37 19 -189 14 -295 l-5 -113 29 0 c28 0 29 2 29 48 0
71 11 122 26 122 13 0 21 -40 26 -125 3 -35 6 -40 31 -43 21 -3 27 -9 27 -28
0 -21 -5 -24 -37 -25 -65 -2 -68 -3 -71 -27 -4 -23 -2 -23 71 -20 75 3 75 3
80 33 2 17 2 65 -1 108 -5 73 -6 77 -28 77 -20 0 -24 5 -24 30 0 25 -4 30 -25
30 -22 0 -25 4 -25 38 0 20 3 54 6 75 l7 37 108 0 109 0 0 -140 c0 -130 1
-140 19 -140 16 0 20 10 26 65 6 59 9 65 26 60 15 -5 19 -1 21 22 1 15 5 3 9
-27 4 -34 6 -1 3 85 -2 77 -4 175 -4 218 0 75 -1 77 -25 77 -20 0 -25 -5 -25
-25 0 -20 -5 -25 -25 -25 -22 0 -24 -4 -27 -57 l-3 -57 -110 0 -110 -1 -3 83
-3 82 -74 0 c-69 0 -74 -1 -77 -22 -3 -20 -10 -23 -60 -26 -54 -3 -58 -5 -58
-27 0 -22 -5 -24 -52 -27 -52 -3 -53 -4 -56 -35 -3 -32 -4 -33 -53 -33 -46 0
-49 -2 -49 -25 0 -22 -4 -25 -35 -25 -31 0 -35 -3 -35 -25 0 -23 -3 -25 -50
-25 -47 0 -50 -2 -50 -25 0 -21 -5 -25 -31 -25 l-32 0 6 88 c4 48 7 95 7 105
0 10 8 17 18 17 17 0 20 12 25 98 4 53 7 150 7 214 0 106 6 138 24 121 3 -3 2
-11 -3 -17 -6 -7 -4 -16 5 -24 12 -11 14 20 13 210 -1 123 -4 211 -6 196 -2
-16 -11 -28 -19 -28 -11 0 -14 23 -15 123 -1 67 -4 167 -8 222 -5 86 -8 100
-23 97 -17 -3 -23 35 -31 168 -2 38 -5 45 -22 45 -18 0 -20 8 -25 85 -5 83 -6
85 -31 88 -22 3 -28 9 -33 40 -3 20 -6 54 -6 74 0 30 -4 37 -22 40 -20 3 -23
10 -26 61 -3 53 -5 57 -27 57 -21 0 -25 5 -26 33 -1 17 -1 40 0 50 2 12 -5 17
-23 17 -21 0 -25 5 -28 33 -2 26 -7 32 -24 30 -18 -2 -23 5 -28 35 -12 72 -9
82 24 82 25 0 30 4 30 25 0 23 3 24 78 27 71 3 77 5 80 26 3 20 9 22 66 22
103 0 156 10 156 30 0 14 14 18 83 23 45 4 108 7 140 7 52 0 58 2 52 19 -7 24
32 31 191 31 129 0 184 7 184 22 0 5 -9 6 -20 3 -11 -3 -20 -2 -20 3 0 19 77
22 661 22 l599 0 0 29 0 28 -82 6 c-46 4 -145 7 -220 7 -120 0 -138 2 -138 16
0 11 6 15 20 11 11 -3 23 -1 26 4 3 5 -35 10 -88 11 -132 4 -717 4 -754 0z
m-417 -4455 l1 -137 -48 0 c-46 0 -48 1 -53 33 -2 17 -2 67 1 110 l5 77 -27 0
c-23 0 -27 4 -24 23 3 19 8 22 41 19 20 -2 45 1 54 6 9 6 24 9 32 7 14 -2 16
-23 18 -138z m6217 -138 c-10 -4 -48 -19 -84 -34 -45 -18 -95 -28 -165 -34
-55 -5 -88 -9 -72 -10 28 -1 37 -15 15 -24 -7 -2 -85 -5 -173 -6 -212 -2 -250
-7 -252 -33 -1 -11 -4 -22 -7 -25 -2 -2 -53 -8 -113 -11 -92 -6 -108 -9 -105
-23 3 -19 -34 -29 -103 -29 -53 0 -105 -10 -105 -20 0 -5 9 -6 20 -3 14 4 20
0 20 -11 0 -9 -7 -15 -17 -13 -10 1 -46 -2 -80 -6 -52 -7 -63 -11 -63 -27 0
-16 -10 -20 -60 -26 -49 -5 -60 -10 -60 -25 0 -14 -11 -20 -50 -25 -46 -6 -50
-9 -50 -34 0 -26 -4 -29 -50 -35 -27 -4 -49 -10 -49 -13 4 -30 -3 -42 -26 -42
-20 0 -25 -5 -25 -25 0 -22 -4 -25 -35 -25 -31 0 -35 -3 -35 -25 0 -20 -5 -25
-25 -25 -21 0 -25 5 -25 30 0 23 5 30 19 30 26 0 31 35 31 210 l0 147 93 7
c123 9 251 30 369 60 102 26 464 80 608 91 47 3 180 15 295 25 294 28 416 31
359 9z m-6538 -120 c6 -53 9 -60 25 -56 15 4 19 0 19 -23 0 -22 -5 -29 -22
-32 -18 -2 -24 -11 -26 -38 -2 -19 -8 -39 -14 -45 -8 -7 -9 -5 -5 7 5 14 -2
17 -46 20 -48 3 -52 5 -55 31 -2 18 -9 27 -21 27 -13 0 -20 10 -25 38 -13 81
-13 82 54 82 57 0 60 1 60 25 0 20 5 25 25 25 22 0 25 -5 31 -61z m324 -55 l0
-117 -37 7 c-21 3 -59 6 -84 6 -45 0 -47 1 -52 33 -2 17 -2 67 1 110 l5 77 83
0 84 0 0 -116z m-1380 -79 l0 -85 -129 0 c-124 0 -130 -1 -133 -21 -3 -18 -11
-22 -60 -25 l-58 -5 0 81 0 80 104 0 c120 0 136 4 129 30 -5 17 2 19 63 23 38
1 72 4 77 5 4 1 7 -36 7 -83z m1376 -167 l-1 -83 -84 2 c-54 2 -87 7 -92 15
-4 7 -3 16 3 19 6 4 -2 9 -18 11 -25 2 -29 8 -32 36 -3 32 -3 32 40 32 24 0
66 3 94 6 44 6 51 9 47 25 -4 15 0 19 19 19 25 0 25 -1 24 -82z m-1378 -26 l3
-62 -81 0 c-71 0 -80 -2 -80 -19 0 -21 -40 -31 -122 -31 -44 0 -48 -2 -48 -24
0 -20 -6 -24 -40 -30 -30 -5 -40 -11 -40 -25 0 -12 7 -18 18 -17 12 1 18 -7
20 -26 3 -26 1 -28 -32 -28 -34 0 -34 0 -25 33 4 17 7 52 6 77 -2 39 1 45 18
45 17 0 20 8 23 52 l3 52 112 3 112 3 0 25 c0 23 4 25 60 30 93 8 90 11 93
-58z m3128 -2 l64 0 0 -55 c0 -52 -1 -55 -25 -55 -20 0 -25 -5 -25 -25 0 -21
-5 -25 -29 -25 -25 0 -30 -4 -33 -27 -2 -22 -8 -28 -28 -28 -20 0 -26 -6 -28
-28 -3 -21 -9 -27 -28 -27 -20 0 -24 -5 -24 -30 0 -25 -4 -30 -25 -30 -20 0
-25 -5 -25 -25 0 -21 -5 -25 -30 -25 l-30 0 0 115 c0 108 -1 115 -20 115 -13
0 -20 7 -20 20 0 11 5 20 10 20 6 0 10 -7 10 -15 0 -8 5 -15 10 -15 6 0 9 3 9
8 -1 4 -1 22 0 40 1 29 4 32 34 32 17 0 56 3 85 6 44 6 52 10 53 28 0 21 1 21
11 -1 6 -13 14 -23 19 -23 9 0 6 26 -4 36 -4 4 -7 14 -6 23 0 10 2 12 6 4 3
-9 27 -13 69 -13z m-323 -272 c-1 -90 -2 -175 -2 -189 -1 -25 -5 -27 -56 -34
-44 -5 -55 -10 -53 -23 3 -15 -20 -18 -242 -23 -135 -3 -246 -7 -246 -8 -1 0
1 -12 4 -26 4 -23 1 -25 -34 -26 -421 -14 -409 -13 -408 -31 1 -10 -1 -18 -5
-19 -3 0 -19 -2 -36 -5 -16 -2 -49 -2 -72 1 -33 5 -43 10 -43 25 0 15 9 19 48
22 45 3 47 4 50 36 3 31 4 32 53 32 45 0 49 2 49 24 0 22 5 25 60 31 49 6 60
10 60 25 0 14 11 20 49 25 41 5 50 11 53 28 3 19 10 22 56 25 48 3 52 5 52 28
0 23 3 24 60 24 60 0 60 0 60 29 0 28 2 30 55 36 43 6 55 11 55 25 0 20 42 30
123 30 44 0 48 2 45 23 -3 21 1 22 75 25 74 3 77 4 77 27 0 24 3 25 58 25 l57
0 -2 -162z m1267 138 c0 -21 -6 -25 -32 -28 -26 -2 -34 -8 -36 -26 -3 -21 -8
-23 -50 -20 -36 2 -47 7 -47 20 0 21 -12 33 -33 33 -9 0 -18 8 -20 17 -4 21
16 25 131 27 86 1 87 1 87 -23z"/>
<path d="M5585 8570 c-112 -5 -120 -6 -120 -25 0 -19 8 -20 135 -23 119 -2
136 -1 149 15 9 13 15 14 18 6 3 -7 9 -13 14 -13 6 0 7 5 4 11 -4 6 3 13 16
17 21 5 19 7 -16 14 -22 4 -49 6 -60 5 -11 0 -74 -3 -140 -7z"/>
<path d="M5530 6355 c0 -24 0 -24 -112 -27 l-113 -3 0 -25 0 -25 112 2 112 2
3 -27 c2 -20 9 -28 27 -30 23 -4 23 -5 19 -90 -3 -48 -3 -73 -1 -56 3 26 7 30
28 27 20 -4 24 -13 30 -54 6 -42 10 -49 30 -49 21 0 23 5 27 62 4 50 1 69 -15
96 -11 18 -23 29 -26 24 -3 -6 -7 10 -8 34 -2 52 -8 64 -32 64 -12 0 -20 9
-24 28 -7 34 -4 36 25 22 20 -10 21 -10 6 3 -10 8 -15 17 -11 21 4 4 0 4 -10
0 -12 -4 -17 -1 -17 10 0 10 -9 16 -25 16 -20 0 -25 -5 -25 -25z"/>
<path d="M4862 6033 l3 -138 28 -3 27 -3 0 140 0 141 -30 0 -31 0 3 -137z"/>
<path d="M7249 3693 c-20 -3 -26 -10 -26 -28 0 -23 0 -23 137 -24 76 -1 140 2
143 6 3 4 1 18 -4 31 -8 21 -13 22 -116 21 -59 -1 -120 -4 -134 -6z"/>
<path d="M8930 3670 c0 -16 5 -30 11 -30 5 0 8 -4 4 -9 -3 -5 -21 -7 -40 -4
-30 5 -35 3 -35 -15 0 -11 5 -22 11 -24 7 -2 5 -9 -5 -17 -11 -9 -16 -10 -16
-2 0 17 -40 13 -47 -5 -3 -9 0 -20 8 -25 16 -10 7 -12 -33 -9 -22 1 -28 -3
-28 -18 0 -11 -3 -34 -6 -51 l-7 -32 146 3 146 3 -6 -27 c-5 -26 -3 -28 26
-28 19 0 30 4 26 10 -3 6 -2 10 3 10 6 0 12 -7 16 -15 3 -8 1 -15 -4 -15 -6 0
-10 -13 -10 -30 0 -25 4 -30 25 -30 17 0 25 6 25 18 0 14 2 15 10 2 6 -10 6
-16 0 -18 -6 -2 -10 -28 -10 -58 0 -50 2 -54 24 -54 55 0 39 78 -35 168 -28
34 -55 62 -61 62 -5 0 -21 9 -36 20 -29 21 -168 46 -201 35 -38 -12 -16 27 43
75 34 26 81 70 106 96 25 27 35 40 23 30 -21 -17 -23 -17 -23 -3 0 11 -8 17
-25 17 -21 0 -25 -5 -25 -30z"/>
<path d="M2068 3173 c-2 -22 -9 -29 -31 -31 -19 -2 -27 -8 -25 -20 2 -14 -6
-17 -47 -19 -27 -2 -78 -5 -111 -9 -55 -5 -62 -8 -67 -29 -3 -17 1 -26 12 -29
29 -7 105 -7 163 -1 57 7 57 7 51 36 l-5 29 116 0 116 0 0 25 c0 24 -3 25 -55
25 -52 0 -55 1 -55 25 0 21 -5 25 -29 25 -25 0 -30 -4 -33 -27z"/>
<path d="M2130 3011 c0 -20 26 -31 78 -31 27 0 32 -4 32 -24 0 -20 7 -25 43
-31 23 -4 36 -9 30 -12 -7 -3 -13 -11 -13 -19 0 -13 -41 -20 -91 -15 -20 2
-31 -62 -22 -126 4 -33 10 -43 27 -45 21 -3 23 -8 25 -75 1 -28 5 -33 26 -33
20 0 25 -5 25 -26 0 -22 4 -25 28 -22 18 2 26 8 24 19 -3 20 41 29 146 29 l72
0 0 50 c0 43 -3 50 -19 50 -28 0 -34 15 -26 70 6 40 11 50 26 50 17 0 19 7 18
50 -2 45 -5 50 -25 50 -17 0 -23 6 -26 28 -3 27 -4 27 -85 30 -81 3 -83 3 -83
27 0 25 0 25 -105 25 -96 0 -105 -2 -105 -19z"/>
<path d="M1883 2973 c-13 -2 -23 -8 -23 -13 0 -4 9 -6 20 -3 13 4 20 0 20 -9
0 -12 -17 -16 -77 -17 -43 -1 -87 -4 -98 -6 -11 -2 -26 -4 -32 -4 -7 -1 -13
-10 -13 -21 0 -18 7 -20 54 -20 52 0 55 -1 58 -27 2 -24 8 -29 36 -31 28 -3
33 -7 30 -25 -2 -17 -11 -23 -35 -25 -33 -3 -33 -4 -33 -58 0 -53 0 -54 30
-54 17 0 31 -6 32 -12 0 -7 2 -17 3 -23 2 -5 3 -24 4 -42 1 -25 6 -32 24 -35
14 -2 23 -11 25 -25 3 -21 9 -23 58 -23 47 0 54 2 54 20 0 15 7 20 28 22 15 1
36 2 47 3 11 1 35 3 53 4 28 1 32 5 32 27 0 22 -4 25 -21 21 -25 -7 -28 0 -31
93 -3 74 -4 75 -31 78 -21 3 -27 9 -27 27 0 21 -6 24 -55 30 l-55 7 0 43 c0
41 1 43 38 49 20 3 58 6 85 6 43 0 47 2 47 25 l0 25 -112 -1 c-62 -1 -123 -4
-135 -6z"/>
<path d="M5829 2972 c-31 -2 -36 -6 -32 -23 5 -18 16 -19 327 -18 176 0 330 4
341 9 11 5 14 9 7 9 -7 1 -11 5 -8 10 3 5 -13 11 -35 15 -41 6 -531 5 -600 -2z"/>
<path d="M5163 2922 c-64 -3 -73 -5 -73 -22 0 -14 5 -18 16 -13 13 5 13 7 2
14 -10 7 -9 9 5 9 9 0 17 -7 17 -15 0 -13 40 -15 304 -15 294 0 305 1 303 19
-1 14 -11 21 -40 25 -37 6 -377 5 -534 -2z"/>
<path d="M4708 2873 c-65 -2 -118 -7 -118 -11 0 -4 5 -14 10 -22 8 -12 44 -15
212 -16 247 -1 278 2 278 27 0 10 -3 19 -7 20 -26 3 -277 4 -375 2z"/>
<path d="M6173 2873 c-168 -2 -253 -7 -253 -14 0 -6 9 -8 20 -4 14 4 20 2 20
-9 0 -17 -65 -20 -519 -24 -151 -1 -278 -5 -282 -8 -5 -3 -9 -11 -9 -17 0 -7
4 -6 10 3 9 13 11 13 20 0 14 -22 -57 -28 -342 -29 l-238 -1 0 -28 0 -29 -172
-6 c-95 -4 -208 -7 -250 -7 -63 0 -78 -3 -78 -15 0 -8 10 -16 23 -16 63 -5
-119 -17 -257 -18 -153 -1 -158 -2 -153 -21 3 -11 4 -21 4 -21 -1 -1 -90 -4
-197 -8 -192 -6 -195 -6 -198 -28 -3 -22 -7 -23 -106 -23 -57 0 -130 -3 -163
-6 -53 -6 -60 -9 -56 -25 5 -17 -1 -19 -58 -20 -35 -1 -68 -2 -74 -4 -5 -1
-52 -3 -103 -3 -87 -2 -93 -3 -87 -21 3 -11 2 -22 -3 -24 -4 -3 -63 -7 -129
-8 -67 -1 -127 -5 -133 -9 -7 -4 -10 -16 -8 -26 3 -18 16 -19 170 -22 l167 -2
3 27 3 28 180 6 c99 4 195 7 213 8 25 1 32 5 30 19 -3 15 9 18 92 23 52 4 156
8 230 9 74 1 129 4 123 7 -7 2 -13 10 -13 17 0 17 115 26 334 26 160 0 168 1
163 19 -7 27 19 30 260 31 247 1 291 6 289 29 -1 16 69 20 496 30 49 1 56 3
51 19 -4 18 7 19 169 25 95 4 235 7 311 7 75 0 137 3 137 6 0 3 -4 13 -10 23
-8 16 -3 19 43 25 29 3 149 6 268 6 249 0 460 10 454 21 -3 4 -14 5 -25 2 -14
-4 -20 0 -20 11 0 14 20 16 168 16 93 0 263 3 379 7 191 6 210 8 206 23 -8 30
-152 33 -1100 23z"/>
<path d="M4107 2799 c-3 -12 0 -19 10 -19 8 0 11 5 8 10 -3 6 1 10 9 10 9 0
15 -6 14 -12 -2 -10 34 -14 147 -16 188 -4 235 2 235 29 0 19 -7 20 -209 18
-196 -1 -210 -2 -214 -20z"/>
<path d="M3769 2768 c0 -2 -2 -15 -4 -30 l-4 -28 140 0 140 0 -3 28 -3 27
-132 3 c-73 2 -133 2 -134 0z"/>
<path d="M6230 2260 c-30 -5 -36 -7 -17 -8 40 -3 33 -18 -11 -26 -21 -3 -227
-7 -458 -8 -449 -2 -584 -7 -547 -21 13 -5 27 -6 32 -2 5 3 12 1 15 -4 9 -14
-78 -21 -284 -21 -261 0 -530 -11 -530 -22 0 -5 11 -6 25 -2 20 5 25 2 25 -13
0 -18 -9 -21 -77 -27 -42 -3 -173 -6 -292 -6 -119 0 -233 -3 -253 -6 -39 -7
-43 -23 -5 -25 20 -1 20 -2 -3 -9 -14 -4 -110 -8 -215 -9 -104 -1 -220 -4
-256 -7 -58 -6 -66 -9 -62 -25 5 -18 -2 -19 -83 -19 -49 0 -146 -3 -216 -7
-115 -5 -128 -8 -128 -25 0 -15 9 -18 58 -19 113 -3 159 -3 304 -1 141 2 146
3 141 22 -5 18 0 20 38 21 24 1 183 4 353 8 234 4 310 9 314 19 2 7 -6 13 -20
13 -12 1 4 5 37 9 33 4 197 9 365 9 297 2 405 9 368 25 -9 4 -22 5 -28 1 -5
-3 -10 -2 -10 3 0 17 72 22 325 22 138 0 307 3 376 7 116 5 126 7 122 24 -3
12 -15 20 -32 21 -68 4 242 15 470 17 282 1 321 5 317 30 -3 14 34 17 384 21
213 3 389 8 392 10 3 3 1 12 -4 20 -8 13 -73 15 -447 16 -241 1 -458 -2 -483
-6z"/>
<path d="M7725 2166 c-3 -28 -6 -78 -8 -111 -2 -59 -3 -60 -29 -57 -26 3 -27
1 -30 -50 -3 -46 -6 -53 -25 -56 -18 -3 -23 -12 -29 -58 -6 -48 -9 -54 -29
-54 -18 0 -24 -6 -27 -27 -2 -20 -9 -29 -25 -31 -17 -3 -23 -12 -28 -53 -6
-39 -11 -49 -26 -49 -16 0 -19 -7 -19 -47 0 -56 -10 -76 -32 -68 -13 5 -17 -5
-23 -54 -7 -59 -8 -61 -36 -61 -24 0 -29 -4 -29 -25 0 -20 -5 -25 -24 -25 -19
0 -25 -6 -28 -27 -2 -22 -8 -28 -28 -28 -17 0 -26 -7 -30 -25 -4 -16 -13 -25
-25 -25 -15 0 -21 -8 -23 -32 -3 -27 -8 -33 -27 -33 -18 0 -24 -6 -27 -27 -2
-22 -9 -29 -29 -31 -21 -2 -28 -10 -33 -34 -12 -60 -9 -68 28 -68 30 0 35 3
38 28 2 19 9 27 23 27 14 0 21 8 23 28 3 21 9 27 28 27 19 0 24 5 24 24 0 19
6 25 28 28 21 2 28 9 30 30 2 19 10 28 25 30 13 2 23 12 27 28 4 17 13 25 27
25 26 1 38 11 38 33 0 9 11 19 25 22 14 3 25 12 26 20 3 39 5 42 24 37 17 -4
20 2 26 54 5 49 10 58 28 61 23 3 23 4 25 96 1 59 2 62 26 62 20 0 25 5 25 25
0 20 5 25 25 25 22 0 25 5 31 61 6 57 8 61 31 56 29 -5 33 1 35 58 0 40 3 45
24 45 23 0 24 2 25 93 2 142 2 147 11 147 4 0 8 5 8 11 0 6 -7 8 -16 5 -8 -3
-13 -2 -10 3 3 5 -3 11 -14 14 -16 4 -20 -2 -25 -47z"/>
<path d="M6520 1610 c-96 -3 -165 -7 -152 -8 12 -1 22 -8 22 -16 0 -17 -65
-21 -444 -24 -137 -2 -253 -5 -257 -8 -4 -2 -6 -11 -3 -18 7 -19 -98 -25 -476
-28 -179 -1 -343 -4 -365 -8 -22 -4 -30 -8 -19 -9 18 -1 41 -28 32 -36 -2 -2
-211 -6 -465 -10 -394 -7 -461 -10 -456 -22 4 -10 9 -11 16 -4 15 15 37 14 37
-3 0 -16 -225 -25 -714 -29 -239 -2 -269 -4 -271 -18 -4 -25 94 -29 656 -29
482 0 804 8 745 20 -17 3 -30 10 -30 15 -1 6 136 12 379 16 209 3 420 7 468 8
50 0 86 5 83 10 -3 5 -14 7 -25 4 -11 -3 -21 2 -24 11 -6 14 8 16 106 17 62 1
211 4 332 8 217 6 220 6 217 27 -4 30 25 34 237 35 237 2 313 9 301 29 -6 10
-10 11 -10 3 0 -7 -9 -13 -20 -13 -20 0 -27 14 -11 24 4 3 80 6 167 6 216 1
270 7 270 30 0 16 -11 19 -76 22 -41 2 -154 1 -250 -2z"/>
<path d="M1132 1365 c3 -13 1 -22 -4 -19 -12 8 -59 -36 -52 -47 3 -5 -1 -6 -9
-4 -16 7 -49 -27 -45 -46 2 -8 -2 -13 -8 -12 -18 3 -89 -76 -89 -99 0 -15 -7
-22 -24 -23 -14 -1 -42 -21 -68 -48 -44 -47 -44 -47 -111 -47 -154 -1 -292
-24 -292 -50 0 -3 8 -10 19 -15 10 -6 34 -19 52 -29 29 -17 54 -19 169 -19
137 0 194 11 185 35 -4 9 4 14 22 15 25 2 26 1 8 -8 -21 -10 -21 -10 64 7 36
7 143 126 135 148 -3 9 -1 16 5 16 6 0 11 -5 11 -11 0 -6 19 6 42 25 23 20 45
36 50 36 4 0 8 14 8 30 0 18 6 33 15 36 21 9 189 -16 194 -28 8 -24 68 -82 98
-94 38 -16 55 -18 33 -4 -12 8 -9 10 13 10 26 0 40 -20 15 -20 -7 0 5 -11 26
-25 28 -17 48 -22 68 -18 19 4 28 1 28 -7 0 -7 -7 -10 -15 -6 -8 3 -15 3 -15
0 0 -6 150 -74 164 -74 6 0 -7 9 -29 19 l-40 19 53 1 c54 1 66 -11 40 -38 -18
-17 238 -11 267 6 18 11 16 12 -12 7 -26 -5 -33 -3 -33 9 0 12 11 15 53 13 54
-3 109 13 122 35 5 8 4 10 -3 5 -7 -4 -12 -1 -12 8 0 12 -10 16 -37 16 -21 0
-49 3 -63 6 -20 5 -22 4 -10 -6 13 -9 12 -10 -5 -6 -11 3 -61 7 -112 8 -51 2
-85 6 -75 10 16 6 16 7 0 7 -10 1 -18 8 -18 16 0 15 -33 21 -94 16 -22 -2 -27
1 -23 13 4 11 -6 19 -38 31 -24 10 -48 14 -53 11 -6 -3 -12 4 -16 17 -3 12
-19 39 -37 60 -24 29 -36 36 -51 31 -12 -3 -18 -2 -15 3 3 5 -7 7 -24 5 -22
-3 -29 0 -29 12 0 14 4 15 23 6 20 -10 20 -9 -3 9 -14 11 -40 22 -58 26 -18 3
-41 9 -50 12 -15 4 -15 3 -2 -6 12 -9 11 -11 -8 -11 -16 0 -22 5 -20 17 4 24
-30 31 -166 32 l-118 1 4 -25z"/>
<path d="M2457 1104 c-3 -3 -3 -17 -1 -31 3 -17 1 -22 -7 -17 -24 15 8 -26 93
-116 72 -76 95 -94 129 -101 49 -11 71 2 67 40 -2 21 -9 27 -35 29 -31 3 -33
1 -33 -27 0 -39 -21 -41 -58 -3 l-27 27 38 3 c34 3 41 11 35 40 0 4 -9 6 -19
4 -9 -2 -20 1 -23 7 -9 14 -44 2 -48 -17 -3 -13 -5 -13 -17 1 -12 15 -11 17 3
17 13 0 17 7 14 27 -4 33 -36 44 -54 18 -9 -11 -14 -13 -19 -4 -4 6 -3 14 3
18 6 3 11 25 10 49 0 37 -3 42 -23 42 -12 0 -24 -3 -28 -6z"/>
<path d="M4345 500 c-19 -8 -18 -9 5 -11 14 -1 -2 -5 -35 -9 -33 -4 165 -7
440 -7 275 0 485 2 468 4 -20 3 -33 10 -33 19 0 12 -60 14 -412 13 -227 0
-422 -4 -433 -9z"/>
</g>
</svg>
