<?xml version="1.0" standalone="no"?>
<!DOCTYPE svg PUBLIC "-//W3C//DTD SVG 20010904//EN"
 "http://www.w3.org/TR/2001/REC-SVG-20010904/DTD/svg10.dtd">
<svg version="1.0" xmlns="http://www.w3.org/2000/svg"
 width="1077.000000pt" height="1080.000000pt" viewBox="0 0 1077.000000 1080.000000"
 preserveAspectRatio="xMidYMid meet">
<metadata>
Created by potrace 1.16, written by Peter Selinger 2001-2019
</metadata>
<g transform="translate(0.000000,1080.000000) scale(0.100000,-0.100000)"
fill="#000000" stroke="none">
<path d="M5045 10461 l-140 -6 1 -35 c0 -36 -10 -50 -36 -49 -10 0 -8 3 5 10
14 6 4 7 -30 3 -97 -10 -105 -14 -112 -44 -5 -26 -10 -29 -60 -36 -34 -4 -50
-10 -42 -15 7 -4 -8 -7 -35 -6 -41 2 -50 -2 -64 -23 -11 -16 -12 -21 -4 -16
10 6 13 2 10 -15 -2 -14 -11 -25 -23 -28 -17 -3 -18 -1 -5 15 8 11 0 6 -18
-10 -17 -16 -34 -38 -38 -48 -3 -10 -15 -18 -27 -19 -21 -1 -20 -2 3 -10 18
-6 9 -7 -30 -4 -30 3 -50 2 -44 0 6 -3 8 -22 5 -48 -6 -40 -8 -42 -46 -47 -40
-5 -40 -5 -43 -51 -3 -41 -7 -49 -32 -59 -33 -13 -87 -66 -56 -54 16 6 17 4 7
-14 -7 -12 -21 -22 -33 -22 -18 0 -19 2 -7 17 11 13 8 13 -12 -2 -24 -18 -28
-29 -34 -97 l-6 -78 -45 0 c-43 0 -44 0 -44 34 0 31 4 36 36 46 19 7 33 14 31
17 -3 2 -20 -2 -39 -10 l-35 -15 -7 -86 c-4 -47 -5 -102 -2 -123 4 -30 4 -33
-3 -13 -9 24 -9 24 -10 3 -1 -15 -6 -21 -15 -17 -9 3 -22 -6 -33 -22 -15 -24
-18 -60 -24 -263 -10 -326 -9 -582 1 -551 6 17 8 -7 7 -70 l-1 -95 37 -3 c46
-4 52 -23 43 -129 -3 -45 -2 -72 3 -68 6 3 7 -9 4 -30 -5 -33 -3 -36 30 -50
46 -19 60 -19 27 0 l-25 14 32 1 c35 0 53 -17 32 -31 -10 -6 -11 -9 -1 -9 6 0
12 -9 12 -20 0 -12 10 -25 24 -31 22 -11 45 -61 47 -105 0 -18 1 -18 9 1 7 15
9 8 7 -25 l-2 -45 35 0 c46 0 60 -10 60 -43 0 -21 -2 -24 -10 -12 -13 20 -12
10 1 -29 9 -25 16 -31 30 -28 11 3 22 1 25 -4 3 -5 11 -9 17 -9 7 0 6 4 -3 11
-12 8 -12 10 -1 7 8 -2 15 -13 16 -24 1 -12 16 -42 35 -67 36 -50 54 -65 25
-20 l-17 26 38 -6 c22 -4 49 -7 62 -7 19 0 22 -5 22 -35 0 -38 -6 -41 -59 -25
-21 6 -31 6 -25 0 11 -11 139 -32 174 -28 18 2 25 -2 28 -17 2 -16 1 -17 -7
-5 -16 23 -13 3 4 -30 16 -31 37 -36 142 -34 19 1 34 -5 37 -13 3 -8 1 -11 -4
-8 -6 3 -10 -3 -10 -15 0 -24 41 -44 74 -35 17 5 18 4 6 -4 -13 -9 -13 -11 2
-11 9 0 25 -3 35 -6 15 -5 15 -4 3 5 -12 8 -7 11 23 11 27 0 37 -4 37 -16 0
-11 -6 -14 -22 -10 l-23 6 23 -11 c21 -12 22 -16 22 -176 l0 -164 -656 2
c-374 1 -659 -2 -664 -7 -12 -14 -19 -884 -6 -891 5 -4 311 -5 679 -4 645 2
669 2 662 -16 -31 -80 -31 -409 1 -520 5 -18 3 -21 -13 -17 -17 5 -19 1 -15
-30 l4 -36 -1296 -2 c-1100 -3 -1296 -1 -1298 11 -2 8 -5 -235 -6 -539 -3
-398 -1 -550 7 -546 7 5 11 -6 11 -33 0 -29 -5 -41 -17 -44 -10 -3 515 -4
1167 -2 652 2 1242 0 1312 -3 l126 -5 -1 -1391 c-1 -765 -6 -1400 -10 -1411
-7 -16 -7 -17 2 -5 9 12 11 5 9 -30 -3 -45 -3 -45 -41 -46 -21 -1 -40 3 -43 7
-3 5 -45 9 -95 9 l-89 0 1 28 1 27 8 -25 c9 -24 9 -24 7 4 -2 34 -15 39 -118
51 -39 5 -59 4 -56 -2 8 -13 -96 -3 -104 10 -4 5 -5 17 -4 26 2 9 4 20 4 25 1
5 20 6 44 3 35 -5 38 -5 17 4 -22 9 -93 16 -204 18 -38 1 -38 2 -32 33 8 41 9
42 51 34 27 -5 35 -12 36 -29 1 -18 2 -19 6 -3 8 31 -14 40 -105 46 l-87 5 -2
45 c-1 37 0 41 7 20 l9 -25 -2 24 c-2 30 -33 40 -129 44 -53 1 -68 5 -68 17 0
8 -21 43 -46 77 -42 57 -50 63 -99 73 -29 6 -66 8 -81 5 -24 -4 -25 -3 -9 4
19 9 19 10 -2 10 -19 1 -23 7 -23 32 0 26 -3 31 -20 26 -11 -3 -23 -1 -26 5
-3 5 -12 7 -19 4 -14 -5 -25 15 -24 42 0 14 2 13 9 -3 8 -19 9 -19 9 3 1 25
-33 43 -86 46 -18 1 -36 6 -40 10 -4 5 -2 6 5 2 32 -19 -9 46 -45 69 -14 10
-22 12 -19 6 4 -6 1 -11 -7 -11 -17 0 -27 22 -26 53 0 21 1 21 9 2 8 -20 9
-20 9 1 1 14 -40 62 -125 145 -69 68 -148 152 -176 186 -40 48 -59 64 -86 69
-22 4 -37 2 -42 -5 -10 -18 -40 14 -39 42 1 21 2 20 10 -3 7 -21 8 -20 4 9 -3
18 -5 40 -5 48 0 10 -7 14 -20 10 -10 -3 -24 1 -31 9 -6 8 -17 14 -23 14 -6 0
-4 -5 4 -11 13 -9 13 -10 0 -6 -8 2 -14 10 -12 17 4 18 -48 70 -70 70 -14 0
-18 8 -18 39 0 22 4 42 9 45 5 4 7 -13 5 -36 l-3 -43 8 38 c4 20 10 40 14 43
3 3 77 6 166 6 151 0 161 2 178 22 18 21 18 21 -4 3 -14 -13 -33 -17 -60 -15
-35 3 -38 5 -38 33 0 28 3 30 43 33 27 2 45 9 49 18 5 12 10 11 29 -7 18 -17
21 -25 12 -36 -8 -11 -7 -12 6 -7 9 3 16 9 16 13 0 4 -34 41 -75 83 -41 42
-75 83 -75 92 0 15 -9 18 -80 21 -17 0 -26 7 -28 20 -3 17 -1 18 8 5 12 -16
11 -8 -6 53 -8 27 -97 117 -141 142 -17 10 -34 26 -36 35 -3 14 -21 19 -84 24
l-79 7 4 29 c4 25 0 31 -24 41 -16 7 -43 12 -61 12 -17 1 -29 5 -26 10 5 8
-64 117 -74 117 -3 0 2 -12 12 -26 l17 -26 -59 7 c-73 9 -74 10 -71 47 3 44
42 57 77 26 l25 -23 -16 25 c-12 20 -25 25 -64 28 -96 5 -107 7 -111 22 -4 13
-3 13 6 0 6 -8 11 -11 11 -6 0 5 -23 39 -50 76 -55 74 -67 80 -185 85 -37 1
-61 7 -63 15 -3 7 0 10 5 7 6 -4 5 8 -1 28 -9 30 -15 35 -42 35 -17 0 -52 3
-78 6 -43 6 -46 9 -46 36 0 22 -6 31 -27 39 -16 6 -38 8 -50 6 -12 -2 -20 -1
-18 3 3 4 -15 11 -40 14 -42 7 -45 9 -45 37 0 28 -2 29 -47 31 -27 1 -68 2
-93 1 -33 -1 -40 1 -25 7 18 8 19 9 1 9 -13 1 -16 6 -11 19 3 9 8 31 11 47 4
30 4 30 -12 -5 -15 -31 -17 -87 -18 -450 l-1 -415 40 -1 40 -1 -37 4 -38 4 2
72 c1 40 3 56 5 35 4 -38 5 -38 49 -38 l44 0 0 -37 c0 -23 -7 -45 -20 -58 -14
-15 -16 -24 -9 -35 9 -13 10 -12 6 2 -3 9 0 22 8 28 18 15 29 -100 20 -207 -3
-43 -3 -73 2 -68 4 6 22 11 40 13 35 3 40 -7 41 -71 0 -21 -4 -27 -15 -23 -8
3 -23 6 -33 6 -13 0 -20 9 -23 28 -4 25 -4 25 -3 -3 1 -25 6 -31 29 -33 22 -3
27 -9 28 -30 l1 -27 8 25 c6 15 7 -3 3 -47 -3 -43 -2 -73 4 -73 5 0 9 -21 9
-48 -1 -44 1 -47 27 -50 17 -2 27 1 27 10 1 8 6 6 15 -6 8 -11 15 -29 14 -40
-1 -18 -2 -18 -9 4 -9 28 -4 -68 10 -197 6 -54 18 -99 34 -130 14 -26 25 -44
26 -40 0 4 -9 25 -20 47 -28 55 -26 80 5 80 14 0 28 -6 30 -12 5 -14 13 -142
14 -220 1 -47 1 -47 38 -50 35 -3 38 -5 41 -38 2 -19 8 -41 14 -47 18 -22 56
-15 79 16 11 15 38 38 60 50 39 22 42 29 43 96 1 25 6 30 26 32 23 2 23 2 5
-6 -27 -13 -3 -13 30 -1 24 9 26 14 23 53 -3 37 -1 42 18 42 12 0 31 9 43 19
21 19 21 19 21 -2 0 -18 6 -22 35 -22 l34 0 8 -62 c4 -35 9 -54 11 -43 2 17 9
20 42 17 l40 -4 0 -48 c0 -54 10 -66 52 -61 26 2 28 0 28 -32 0 -19 6 -40 14
-46 7 -6 13 -24 13 -39 l0 -27 -14 30 -14 30 6 -30 c8 -36 12 -41 45 -50 19
-5 21 -4 10 4 -12 9 -11 11 9 11 27 0 23 10 -6 14 -10 2 -19 13 -21 24 -3 19
1 22 34 22 35 0 36 -1 31 -29 -4 -20 -1 -33 9 -42 8 -7 12 -19 9 -26 -3 -8 -2
-25 1 -37 4 -18 11 -22 35 -18 16 2 36 -2 45 -9 9 -7 28 -13 42 -14 20 0 28
-6 30 -23 4 -27 -22 -30 -37 -5 -5 10 -13 14 -17 10 -4 -4 -16 1 -28 10 -19
17 -19 16 2 -13 22 -32 63 -71 48 -46 -6 10 -2 13 15 10 14 -2 23 -9 21 -17
-3 -15 56 -81 72 -81 6 0 -6 14 -27 31 -20 17 -37 34 -37 37 0 4 17 7 38 7 35
0 37 -2 38 -34 1 -38 16 -51 62 -51 31 0 32 -1 32 -46 l0 -46 -31 6 c-17 3
-35 6 -40 6 -4 0 -10 9 -12 20 -4 18 -4 18 -3 -2 1 -26 34 -37 123 -41 52 -2
63 -5 67 -22 3 -11 26 -45 51 -75 25 -30 45 -59 45 -64 0 -4 9 -6 20 -3 11 3
23 1 26 -4 3 -5 13 -8 21 -7 9 2 18 -3 21 -11 3 -9 0 -11 -8 -6 -25 15 8 -30
52 -70 23 -22 32 -28 19 -12 -24 27 -24 27 -3 27 11 0 24 -4 27 -10 3 -5 22
-10 41 -10 26 0 34 -4 34 -17 0 -33 -17 -49 -37 -37 -14 9 -21 8 -31 -2 -11
-12 -7 -14 20 -14 18 0 56 -3 84 -6 49 -6 50 -7 46 -35 -4 -24 0 -31 24 -40
26 -11 47 -13 137 -18 25 -1 27 -4 27 -46 0 -40 -2 -45 -22 -45 -17 0 -19 3
-10 9 11 6 10 10 -4 15 -10 4 -21 1 -25 -6 -4 -7 -9 2 -12 23 l-4 34 -1 -33
c-2 -27 3 -34 25 -43 15 -5 38 -7 51 -4 16 4 21 2 17 -5 -5 -8 6 -10 39 -5
l46 7 0 -41 c0 -28 4 -41 13 -40 6 2 44 -1 83 -5 70 -8 70 -8 66 -36 -2 -15 1
-31 7 -34 6 -4 51 -12 101 -18 89 -11 90 -12 90 -38 0 -38 15 -46 95 -53 43
-3 60 -2 45 3 -18 6 -20 8 -7 9 30 2 57 -18 56 -42 0 -21 -1 -21 -10 -2 -8 18
-8 18 -6 -4 3 -32 32 -40 169 -45 59 -3 112 -7 117 -11 6 -3 6 -17 -1 -36 -7
-19 -7 -34 -1 -40 13 -13 121 -30 147 -23 12 2 39 1 61 -4 36 -7 40 -11 40
-38 0 -26 -3 -30 -22 -26 -13 2 -23 9 -23 14 0 6 -6 8 -14 5 -9 -4 -16 2 -19
14 -4 15 -4 15 -3 -3 1 -19 13 -26 81 -45 92 -26 102 -27 60 -7 l-30 14 30 -2
c27 -3 30 -7 33 -39 2 -22 12 -44 24 -55 12 -11 18 -14 15 -8 -4 7 0 14 8 18
27 10 45 -5 45 -36 0 -28 -2 -29 -17 -17 -17 13 -17 12 -3 -5 15 -19 43 -32
88 -41 23 -5 24 -4 7 5 -19 9 -18 9 4 7 17 -1 25 -9 26 -25 1 -12 16 -39 34
-60 17 -20 40 -49 49 -64 13 -21 25 -28 50 -28 27 0 32 -4 31 -22 0 -22 -1
-22 -10 -3 -7 15 -7 11 -3 -15 3 -19 10 -39 15 -45 5 -5 46 -9 92 -10 l82 0 3
39 c3 28 0 36 -9 30 -9 -5 -10 -2 -6 10 4 10 7 20 7 22 0 3 5 2 11 -2 9 -5 10
6 7 39 -3 27 -2 44 4 41 5 -3 26 -3 47 1 30 5 45 16 72 53 48 66 52 74 54 97
2 14 8 19 23 18 22 -3 72 48 72 72 0 8 5 17 12 21 7 5 8 3 4 -5 -6 -9 1 -11
26 -6 18 3 53 9 78 13 45 8 45 8 43 46 l-3 39 51 -7 c37 -5 49 -4 44 5 -5 8
-1 9 13 5 12 -4 37 -4 56 -1 32 7 36 11 42 50 l6 43 121 8 122 9 1 35 0 35 55
-3 c41 -2 50 0 39 9 -12 8 -9 9 13 4 30 -6 143 11 167 26 10 6 5 7 -15 2 -16
-4 -41 -7 -55 -8 -21 0 -25 5 -25 30 l0 30 75 2 c110 3 120 7 120 47 0 33 1
33 52 39 28 4 53 5 55 3 9 -9 -39 -72 -59 -78 l-23 -6 22 -1 c17 -1 33 16 70
73 32 50 55 75 68 76 l20 1 -20 8 c-11 5 19 6 67 3 l87 -5 11 27 c5 15 12 39
15 54 4 23 4 24 -4 7 -9 -18 -10 -17 -10 9 -1 22 2 27 16 22 17 -7 83 48 83
69 0 6 8 12 18 12 107 -1 124 3 150 35 15 17 60 67 100 110 40 44 72 88 72 99
0 19 4 20 55 14 31 -4 55 -3 54 1 -1 5 -1 26 0 47 1 35 3 37 35 37 19 0 38 5
41 10 3 6 22 10 42 10 32 0 34 -2 22 -17 -11 -13 -11 -15 -1 -9 14 9 29 41 37
84 4 23 4 24 -4 7 -9 -18 -10 -17 -10 8 -1 24 2 27 18 22 33 -10 225 175 240
232 5 20 15 29 32 31 l24 2 -25 -14 c-14 -9 -20 -15 -14 -16 21 0 84 50 161
127 115 117 231 268 182 237 -7 -4 -7 1 1 16 13 23 16 23 145 3 55 -9 52 -2
59 -122 3 -48 8 -58 49 -99 45 -45 48 -46 116 -48 60 -3 70 -1 69 14 -1 9 4
36 11 59 6 23 13 80 15 125 l4 83 39 0 38 0 1 121 c0 66 4 125 8 132 11 18 39
15 32 -3 -10 -26 3 -16 19 14 14 29 38 196 34 243 -1 13 -1 42 -1 66 l2 43 38
-3 c31 -3 37 -6 34 -25 -2 -12 3 -25 9 -29 9 -5 7 -10 -7 -15 -17 -7 -17 -8 4
-8 24 -1 28 9 11 26 -7 7 -7 22 0 51 10 34 19 180 21 330 0 29 3 32 30 32 25
0 30 -4 30 -24 0 -13 -6 -27 -13 -29 -9 -4 -9 -6 1 -6 24 -2 11 -21 -15 -22
-26 -2 -26 -2 -4 -6 13 -3 27 -1 32 4 5 5 11 125 14 268 4 143 8 266 11 274 3
9 14 12 33 8 l28 -6 8 129 c4 72 4 147 0 167 l-6 38 -132 0 -132 0 -1 -35 0
-35 -55 3 c-38 2 -50 -1 -39 -7 11 -8 2 -10 -30 -8 l-45 2 -3 -43 -3 -43 -74
7 -74 7 -18 -33 c-17 -31 -61 -89 -48 -62 9 18 -10 14 -28 -6 -10 -10 -17 -33
-17 -51 l0 -32 -56 7 c-43 5 -55 4 -49 -5 5 -9 -2 -11 -29 -5 -34 6 -40 3 -87
-45 -43 -42 -52 -58 -57 -96 -4 -42 -7 -46 -31 -44 -50 4 -72 -1 -65 -13 5 -7
3 -8 -5 -4 -7 5 -25 2 -41 -4 -25 -10 -28 -15 -19 -31 14 -28 2 -42 -24 -27
-20 10 -21 10 -8 -5 12 -15 10 -17 -20 -16 -28 0 -31 2 -14 9 11 5 15 9 8 9
-33 2 -63 -23 -103 -87 -30 -48 -52 -72 -65 -72 l-20 -1 20 -10 c14 -6 4 -7
-30 -3 -32 3 -45 2 -37 -4 11 -7 10 -10 -3 -16 -9 -3 -26 -6 -38 -5 -21 0 -21
1 -2 9 19 8 19 9 1 9 -21 1 -126 -100 -126 -121 0 -7 -3 -24 -6 -38 -5 -21 -4
-22 6 -10 10 13 11 12 6 -3 -3 -10 -6 -20 -6 -23 0 -2 -6 -1 -14 2 -8 3 -28
-1 -44 -10 -24 -12 -28 -20 -25 -41 5 -25 -5 -31 -43 -26 -7 1 -24 -3 -38 -9
-22 -8 -26 -16 -26 -50 0 -40 0 -40 38 -40 20 0 61 -3 90 -7 52 -6 54 -7 50
-34 -6 -37 2 -39 123 -39 l99 0 -77 -69 c-110 -97 -123 -113 -128 -157 l-5
-39 11 40 c14 56 72 113 107 107 25 -4 25 -3 9 10 -17 13 -16 15 13 37 37 27
48 22 32 -14 -7 -14 -12 -40 -12 -57 0 -28 -2 -30 -29 -25 -38 8 -51 -8 -51
-64 l0 -48 -42 -3 c-41 -3 -43 -5 -46 -38 -3 -30 -8 -37 -42 -51 -30 -13 -39
-23 -42 -45 -3 -26 -7 -29 -46 -32 -36 -3 -46 -9 -68 -40 -13 -20 -35 -52 -49
-70 -13 -18 -25 -37 -27 -43 -2 -5 -39 -13 -83 -17 -74 -6 -80 -9 -81 -30 -1
-18 -1 -19 3 -2 3 15 12 20 39 20 l34 0 0 -50 0 -50 -35 0 c-19 0 -44 -5 -54
-12 -10 -6 -26 -8 -36 -4 -15 5 -15 9 -4 24 18 24 -13 -8 -97 -98 -38 -41 -59
-66 -46 -56 22 19 22 19 22 -7 0 -23 -4 -27 -31 -27 -21 0 -28 4 -23 12 5 7
-8 1 -27 -14 -25 -19 -33 -33 -31 -51 2 -21 -2 -24 -30 -24 -27 -1 -29 1 -13
7 15 6 16 9 4 9 -23 1 -49 -31 -49 -61 0 -25 -4 -27 -72 -38 -103 -16 -101
-15 -94 -54 7 -38 -3 -46 -59 -46 -33 0 -34 -1 -37 -47 l-3 -48 -68 -2 c-37
-2 -81 -10 -98 -19 -26 -13 -30 -20 -25 -42 5 -20 4 -23 -4 -12 -5 8 -10 10
-10 4 0 -6 -32 -15 -72 -20 l-73 -9 -3 -37 c-3 -34 -6 -38 -30 -37 l-27 1 25
9 c21 7 20 8 -9 4 -18 -3 -50 -6 -70 -6 l-36 -1 30 -9 c21 -6 12 -6 -28 -3
-70 7 -146 -4 -126 -17 8 -5 31 -9 52 -9 33 0 37 -3 37 -25 0 -22 -5 -25 -32
-25 -18 0 -58 -2 -88 -5 -49 -4 -52 -4 -21 6 43 13 35 21 -10 9 -19 -5 -69
-13 -112 -18 -68 -7 -80 -6 -85 7 -4 9 -7 657 -7 1441 l0 1425 240 -3 c132 -1
235 1 228 5 -12 9 1733 9 1952 1 72 -3 101 -2 65 2 l-65 6 84 2 83 2 -6 -45
c-5 -29 -3 -45 3 -45 7 0 10 159 11 488 0 268 2 564 4 657 3 98 1 153 -3 130
-5 -22 -9 -34 -10 -27 0 6 -11 12 -23 12 -18 0 -20 -2 -9 -9 9 -6 -477 -9
-1195 -7 -1105 1 -1213 3 -1259 18 -27 10 -51 15 -53 13 -2 -2 18 -11 44 -20
36 -11 40 -14 15 -10 -18 3 -49 5 -67 5 -32 0 -34 2 -33 33 0 17 -2 48 -5 67
-5 30 -4 32 4 10 9 -22 9 -21 5 10 -3 19 -8 129 -12 246 l-6 211 49 14 c39 10
179 14 668 16 341 1 625 4 633 7 11 4 13 84 13 429 0 372 2 426 16 437 8 8 20
22 25 32 8 15 6 18 -13 17 -13 0 -17 -3 -11 -6 10 -3 10 -10 1 -26 -11 -20
-11 -21 -18 -3 -6 19 -27 19 -661 17 -360 -1 -664 -5 -676 -8 -23 -5 -23 -4
-23 103 0 60 -5 127 -10 149 -5 22 -6 42 -2 45 4 3 20 21 36 40 26 31 35 36
90 40 l61 5 1 35 0 35 60 -2 c43 -2 54 0 39 7 -14 6 -4 7 32 3 l52 -5 23 46
22 46 57 0 57 0 90 90 c90 90 120 139 106 175 -5 13 -4 16 5 11 17 -11 81 51
81 77 0 17 5 19 40 14 37 -5 42 -3 56 24 8 17 12 40 9 52 -5 17 -4 19 4 7 9
-13 11 -13 11 2 0 9 16 48 35 85 23 43 37 86 39 118 3 30 9 51 18 53 9 2 8 0
-2 -7 -9 -7 -10 -11 -3 -11 6 0 15 5 18 10 3 6 18 10 32 10 16 0 23 5 20 13
-2 6 2 66 9 132 7 66 11 121 8 124 -2 2 -4 -6 -4 -19 0 -13 -3 -21 -6 -18 -3
3 -2 34 2 67 6 56 9 62 28 59 29 -4 36 -64 9 -71 -13 -3 -10 -5 8 -6 l26 -1 2
258 c1 141 -2 262 -6 267 -5 6 -21 10 -38 10 l-30 0 -1 171 c0 93 -4 176 -8
183 -5 7 -23 11 -45 9 -32 -3 -36 0 -38 22 -2 23 -2 23 7 5 9 -18 10 -17 5 5
-2 14 -5 41 -5 60 0 26 -3 31 -10 20 -7 -11 -8 -5 -4 18 6 29 2 38 -37 77 -31
31 -58 48 -91 57 -47 11 -48 13 -48 50 0 26 -4 37 -11 33 -7 -5 -8 7 -4 37 l7
45 -94 93 c-85 86 -96 94 -130 93 -22 0 -35 4 -32 9 4 6 -11 9 -38 7 -31 -3
-44 0 -41 7 6 15 -119 156 -129 146 -5 -5 -6 -17 -2 -26 5 -13 9 -14 14 -5 6
9 15 4 33 -17 27 -31 21 -42 -12 -25 -11 6 -39 11 -62 11 -41 0 -41 0 -35 30
4 20 1 30 -7 31 -6 1 2 5 18 9 20 5 -6 8 -77 9 l-107 1 -3 32 c-2 25 -9 33
-33 40 -37 11 -628 18 -820 9z m693 -177 l61 -7 3 -36 3 -36 83 -3 82 -3 0
-38 0 -38 -63 -7 c-59 -6 -237 0 -264 9 -7 3 -13 18 -13 35 l0 31 -137 -3
-138 -3 3 -32 c3 -31 2 -33 -30 -34 -18 -1 -100 -4 -183 -8 l-150 -6 -3 -36
-3 -37 -84 -7 -84 -7 -3 -46 -3 -47 -45 -5 c-44 -5 -45 -6 -45 -40 0 -33 -2
-35 -35 -38 -46 -5 -57 -16 -52 -52 4 -30 4 -30 -41 -30 -52 0 -62 -10 -59
-57 3 -33 -3 -37 -41 -33 -26 2 -48 -20 -42 -41 13 -38 -4 -59 -45 -59 l-39 0
-3 -92 -3 -93 -36 -3 -36 -3 -6 -63 c-8 -85 -7 -687 1 -756 7 -55 7 -55 40
-52 17 2 32 0 32 -5 6 -101 11 -171 15 -180 2 -7 20 -13 38 -13 l34 0 9 -82 9
-83 35 0 c35 0 35 0 38 -47 l3 -48 50 0 50 0 -3 -37 c-3 -38 -3 -38 -48 -38
-45 0 -45 0 -48 38 -3 37 -4 37 -48 37 l-44 0 0 39 c0 40 0 40 -42 43 -43 3
-43 3 -46 46 -3 42 -3 42 -43 42 -38 0 -44 6 -39 39 1 7 -1 24 -4 37 -5 19
-13 24 -40 24 l-34 0 -7 78 c-9 116 -11 121 -42 119 -24 -2 -28 2 -35 43 -5
25 -11 63 -12 85 -4 45 -5 641 -2 695 1 19 3 61 4 92 l2 57 38 3 37 3 3 65 c4
106 7 113 47 106 35 -7 35 -7 35 31 0 50 8 61 50 65 32 3 35 6 32 31 -2 15 2
35 10 44 7 9 13 30 13 47 0 28 3 31 30 31 45 0 55 11 55 62 0 45 0 45 30 41
18 -3 35 1 41 9 7 7 32 13 61 13 48 0 49 1 48 28 -4 48 -1 51 48 54 47 3 47 3
47 38 l0 35 95 11 c52 7 105 10 117 7 26 -6 43 21 24 40 -8 8 -11 8 -11 0 0
-17 -38 -23 -44 -6 -9 22 4 35 28 29 11 -3 28 -1 36 4 17 11 662 14 758 4z
m-205 -450 l97 -7 0 -33 c0 -34 1 -34 48 -36 41 -1 38 -2 -23 -8 -60 -6 -54
-7 45 -6 104 1 115 -1 118 -18 3 -11 0 -16 -7 -12 -16 10 -14 -6 5 -32 8 -12
25 -22 37 -21 21 1 20 2 -3 9 -23 7 -23 8 -3 9 30 1 54 -9 47 -21 -4 -7 9 -8
37 -4 31 4 38 3 24 -3 -19 -9 -19 -10 3 -10 18 -1 22 -7 22 -31 0 -27 3 -30
29 -30 28 0 30 -2 37 -57 5 -39 9 -52 14 -39 4 13 9 16 14 8 3 -6 23 -10 42
-8 20 1 38 -2 40 -8 2 -6 8 -67 12 -136 6 -115 9 -125 27 -126 12 -1 14 1 4 3
-10 3 -16 16 -17 37 -1 30 2 34 29 38 16 3 33 0 37 -6 4 -6 7 -126 8 -266 l1
-255 -7 185 -7 185 1 -228 1 -227 -32 0 c-30 0 -32 -2 -43 -57 -21 -104 -22
-111 -10 -88 9 18 9 18 7 -5 -2 -23 -5 -24 -49 -21 -44 2 -49 0 -58 -24 -13
-34 -13 -55 0 -35 8 12 10 10 10 -10 0 -29 -17 -51 -34 -44 -6 2 -27 -12 -46
-32 -19 -20 -29 -34 -22 -30 7 5 12 1 12 -9 0 -11 -6 -15 -18 -11 -19 7 -88
-55 -79 -71 3 -4 -23 -9 -57 -10 -34 -1 -75 -7 -90 -13 -23 -8 -27 -15 -24
-41 l3 -32 -312 -1 c-172 0 -305 2 -295 6 15 6 14 7 -3 7 -11 1 -27 12 -35 25
-42 67 -94 126 -108 125 -16 -1 -16 -2 0 -6 9 -2 28 -23 43 -45 l27 -41 -32 7
c-18 3 -45 6 -61 6 -25 0 -28 4 -31 38 -3 36 -4 37 -45 40 -44 3 -46 6 -43 54
1 22 -4 30 -26 38 -14 6 -36 8 -47 4 -16 -5 -19 -3 -13 11 11 30 -14 129 -46
181 -16 27 -26 40 -22 29 4 -11 7 -30 7 -42 -1 -13 5 -23 13 -23 8 0 14 -9 14
-20 0 -14 -7 -20 -24 -20 -18 0 -23 6 -24 28 -1 15 -4 50 -7 77 -4 36 -3 46 4
35 9 -13 11 -13 11 1 0 9 -7 19 -15 23 -10 3 -14 16 -13 38 3 33 2 33 -44 36
l-48 3 0 224 0 223 50 4 49 3 5 -35 c2 -19 3 19 2 85 l-1 120 37 -3 c33 -3 39
0 48 23 13 35 13 54 -1 35 -8 -11 -9 -6 -4 20 3 19 9 52 12 73 5 35 8 38 33
35 16 -1 37 5 47 13 10 9 27 16 37 16 17 0 16 -3 -8 -24 -15 -12 -23 -23 -19
-23 4 0 28 19 53 41 25 23 38 36 29 30 -13 -9 -18 -8 -23 5 -8 21 11 44 36 44
18 0 19 -2 7 -17 -7 -10 3 -3 24 16 22 21 35 42 34 55 -2 19 3 20 83 19 65 -1
76 1 45 7 -39 7 -39 7 18 9 l57 1 0 34 c0 34 1 35 48 38 121 8 205 9 295 2z
m967 -558 c0 -5 5 -61 12 -124 l11 -114 33 5 c26 4 34 2 37 -11 7 -31 7 -236
-1 -292 -6 -46 -10 -55 -27 -55 -15 0 -21 9 -26 35 -4 29 -6 23 -12 -35 -3
-38 -9 -118 -13 -177 l-6 -107 -36 -3 c-36 -3 -37 -4 -42 -48 -5 -43 -6 -45
-41 -48 -32 -3 -36 -6 -37 -35 -1 -18 -4 -53 -8 -79 -6 -47 -6 -47 -47 -50
-41 -3 -42 -4 -39 -35 2 -18 -3 -35 -10 -40 -13 -8 -23 -10 -119 -19 -51 -5
-56 -8 -51 -26 3 -11 8 -15 11 -9 4 6 21 14 39 17 29 6 32 4 32 -20 0 -24 -3
-26 -43 -26 -24 0 -47 -4 -53 -9 -5 -5 -27 -11 -48 -13 l-40 -3 0 -45 c-1 -44
-2 -45 -36 -47 -19 -2 -77 -6 -128 -9 l-93 -6 3 -31 c3 -32 3 -32 -52 -39 -74
-8 -249 -9 -332 -2 l-67 7 -3 36 -3 36 -80 3 c-121 3 -129 6 -122 47 6 36 0
48 -17 38 -16 -11 -36 -12 -36 -3 0 18 82 24 375 26 171 2 333 5 360 8 28 3
53 5 58 6 4 0 7 15 7 34 l0 34 85 7 85 7 0 38 c0 38 0 38 48 44 26 4 67 7 91
6 l44 0 -6 34 c-7 41 6 56 49 56 30 0 32 3 38 43 3 23 7 58 9 77 2 33 5 35 42
40 40 5 40 6 43 50 1 25 4 63 6 85 3 22 5 43 5 48 1 4 16 7 34 7 l34 0 6 137
c4 75 7 209 7 297 0 89 3 184 6 212 6 48 8 51 35 51 16 0 29 -5 29 -11z
m-1198 -2036 l36 0 7 -82 c3 -46 5 -128 3 -183 l-3 -100 -35 -3 c-19 -2 -339
-5 -710 -6 l-675 -3 -6 -139 c-4 -76 -7 -152 -8 -167 -1 -26 -4 -28 -38 -25
l-38 3 -3 223 c-1 122 -1 223 0 224 2 1 306 4 677 7 l674 6 4 120 c2 66 6 125
8 132 3 9 13 9 37 2 18 -5 49 -9 70 -9z m1473 -258 l100 -7 3 -47 3 -46 -88
-8 c-165 -15 -958 -9 -984 7 -6 3 -9 26 -7 50 l3 44 55 5 c86 8 803 10 915 2z
m-3845 -1911 l5 -274 84 2 c47 1 93 7 103 12 11 6 33 9 51 7 30 -3 32 -5 32
-42 l0 -40 -225 0 -225 -1 -3 295 c-1 162 0 301 3 308 3 9 27 12 87 10 l83 -3
5 -274z m1075 271 c44 1 103 2 130 3 l50 0 -1 -75 -1 -75 -32 -3 c-28 -3 -31
-1 -31 26 0 16 -6 34 -12 40 -7 5 -50 12 -95 15 -102 7 -106 3 -99 -95 3 -40
5 -76 6 -80 0 -5 20 -8 45 -8 l45 0 0 -39 c0 -42 -20 -59 -59 -46 -40 12 -44
-18 -29 -230 l3 -40 -92 -3 -93 -3 0 304 c0 167 3 307 7 311 4 4 46 5 93 2 47
-3 121 -5 165 -4z m831 2 l52 -7 6 -61 c4 -33 9 -87 11 -120 2 -32 7 -61 10
-64 3 -3 20 -6 38 -6 31 -1 32 -3 40 -56 5 -33 4 -99 -2 -166 -6 -60 -11 -116
-11 -122 0 -7 -14 -12 -34 -12 -32 0 -34 2 -40 40 -3 22 -9 58 -12 80 -6 37
-8 40 -39 40 l-32 0 -7 99 -8 100 -36 3 -37 3 -5 85 -5 85 -37 3 c-36 3 -38 5
-38 37 0 33 2 34 43 38 78 7 92 7 143 1z m1079 -5 c6 -1 65 1 133 5 l122 8 0
-46 c0 -24 -4 -48 -10 -51 -5 -3 -7 -19 -3 -35 5 -30 5 -30 -40 -30 -46 0 -46
1 -41 28 8 40 -9 49 -99 55 -91 6 -90 7 -85 -108 l3 -70 45 0 c45 0 45 0 45
35 1 32 4 35 32 38 l31 3 7 -75 c4 -42 5 -82 2 -91 -6 -15 -46 -16 -79 -1 -9
4 -31 6 -50 4 l-33 -3 -3 -80 c-2 -44 0 -91 3 -104 l6 -24 135 7 134 8 0 -39
0 -39 -225 -1 -225 -1 0 302 c0 167 3 306 7 310 7 6 158 2 188 -5z m967 -261
l3 -273 80 1 c44 1 100 2 125 3 70 4 70 4 70 -37 l0 -37 -225 -2 -224 -1 -3
299 c-2 165 -1 304 0 309 2 6 41 10 88 10 l84 0 2 -272z m1163 262 c3 -5 19
-7 35 -3 27 5 30 3 30 -21 0 -29 -11 -33 -34 -11 -21 21 -28 19 -24 -7 2 -18
9 -22 26 -20 41 6 52 -14 52 -97 0 -86 -8 -101 -55 -101 -29 0 -32 -3 -33 -32
-1 -18 -4 -57 -8 -87 -7 -60 2 -73 47 -64 36 7 43 -7 42 -91 l-1 -71 -169 0
-168 0 0 35 c0 33 2 35 37 38 36 3 37 5 40 45 3 42 3 42 45 45 l41 3 5 102 c3
56 7 113 8 127 1 14 -1 32 -4 40 -3 8 -8 31 -9 50 -3 33 -6 35 -43 40 -35 4
-40 9 -43 33 -6 53 0 57 92 57 47 0 88 -4 91 -10z m-2785 -34 c0 -34 -1 -35
-42 -38 l-43 -3 -3 -45 c-2 -25 -7 -49 -13 -54 -6 -6 -9 -6 -9 2 0 18 -38 14
-49 -5 -9 -15 -10 -13 -11 12 0 17 -3 60 -7 98 l-6 67 92 0 91 0 0 -34z
m-1073 -498 l4 -78 -79 0 c-97 0 -173 10 -166 21 3 5 14 9 25 9 10 0 19 5 19
11 0 6 -9 9 -20 6 -22 -6 -37 8 -20 18 5 3 42 8 80 10 39 3 75 7 81 10 5 4 9
22 9 41 0 33 2 35 31 32 l31 -3 5 -77z m1164 -1073 c11 -1213 10 -2485 -2
-2507 -7 -14 -19 -18 -42 -16 -28 3 -31 1 -31 -27 -1 -29 -3 -30 -48 -33 -50
-3 -59 6 -38 38 15 24 -8 30 -130 30 -63 0 -145 3 -182 7 l-68 6 0 33 c0 30
-3 34 -27 35 -16 1 -77 4 -138 8 l-110 6 -3 46 -3 46 -87 9 -87 9 0 32 0 32
-75 6 c-101 9 -103 10 -98 46 3 17 0 33 -6 35 -6 2 -49 7 -96 11 l-85 8 3 36
2 36 -82 9 -83 9 0 35 c-1 35 -2 35 -48 38 l-47 3 0 40 c0 39 0 39 -39 39 -46
0 -55 10 -56 65 0 40 0 40 -40 43 -22 1 -61 5 -87 8 -46 6 -47 7 -50 42 -3 36
-4 37 -45 40 -24 2 -44 8 -44 15 -1 7 -2 26 -3 42 -1 28 -4 30 -43 33 -43 3
-43 3 -43 42 0 39 0 39 -42 42 -43 3 -43 3 -46 46 -3 42 -3 42 -43 42 -39 0
-39 0 -39 40 0 37 -2 40 -27 41 -83 3 -78 0 -81 57 l-3 52 -40 0 -39 0 0 46 0
45 42 -3 c41 -3 42 -4 43 -38 0 -35 1 -35 50 -40 l50 -5 3 -52 3 -52 42 -3
c41 -3 42 -4 45 -40 3 -36 5 -38 36 -38 45 0 70 -21 64 -53 -5 -27 0 -29 109
-43 40 -6 42 -8 45 -42 3 -36 4 -37 46 -40 42 -3 42 -3 42 -42 l0 -39 53 -3
52 -3 5 -40 c4 -35 8 -40 35 -42 17 -2 52 -6 79 -11 l50 -7 0 -45 1 -45 48 -3
47 -3 0 -39 0 -38 93 -8 92 -9 0 -30 c0 -16 4 -33 9 -37 5 -3 45 -9 89 -13
l79 -7 -6 -33 -6 -32 87 -9 88 -9 5 -35 5 -35 90 -3 c49 -2 94 -7 99 -12 6 -6
10 -22 11 -38 l0 -27 165 -10 165 -10 1 -45 0 -45 97 -3 97 -3 0 1569 c0 863
3 1572 7 1576 4 4 41 5 83 4 l75 -3 6 -730z m-3577 368 c4 -5 22 -8 39 -8 30
0 32 -2 31 -33 -2 -34 4 -38 71 -44 27 -3 30 -7 30 -38 l1 -35 92 -9 92 -9 0
-49 0 -48 44 0 c48 0 64 -19 51 -60 -6 -18 -2 -20 34 -20 22 0 43 -4 46 -10 3
-5 22 -10 41 -10 32 0 34 -2 34 -35 0 -36 6 -40 70 -47 14 -2 26 -10 26 -18 1
-8 2 -25 3 -37 1 -20 7 -23 40 -23 31 0 41 -4 46 -20 3 -11 4 -24 1 -29 -16
-24 7 -41 56 -41 l49 0 -3 -52 -3 -53 -43 -3 c-58 -4 -75 11 -67 59 l6 37 -85
7 -86 7 0 39 0 38 -47 3 c-47 3 -48 3 -51 40 l-3 37 -80 7 -79 7 0 38 0 38
-57 3 -58 3 -3 36 c-3 36 -4 36 -55 43 -29 3 -65 6 -81 6 l-28 0 7 -89 c4 -52
2 -142 -6 -220 l-12 -132 -26 3 c-25 3 -26 6 -38 103 -6 55 -13 132 -15 170
l-3 70 -35 5 -35 5 -6 175 c-3 96 -4 181 -1 188 5 13 83 17 96 5z m7254 -130
l3 -43 -45 0 -46 0 0 -55 0 -55 -44 0 c-44 0 -45 0 -48 -37 l-3 -38 -77 -9
-78 -9 0 -38 0 -38 -57 -3 -58 -3 0 -35 0 -35 -83 -9 -83 -9 3 -34 c3 -41 -13
-53 -58 -46 l-33 5 -3 -53 -3 -54 -95 0 -95 0 -3 44 c-4 54 6 64 60 65 42 1
43 1 48 41 5 38 7 40 45 45 38 5 40 7 43 42 3 35 5 36 50 42 26 4 62 7 80 7
31 0 32 2 32 40 0 41 16 52 65 46 16 -2 21 5 25 38 3 25 11 41 20 42 8 1 50 5
93 8 l78 7 -7 34 c-9 47 8 64 62 64 43 0 44 0 44 34 0 33 2 35 38 39 20 2 57
4 82 3 l45 -1 3 -42z m-708 -982 c0 -45 -12 -57 -52 -52 -28 2 -28 2 -28 -54
0 -40 -4 -57 -15 -61 -11 -5 -12 -11 -4 -25 14 -28 3 -39 -40 -39 -46 0 -61
-14 -61 -56 0 -31 -3 -33 -37 -36 -36 -3 -38 -5 -43 -43 -5 -38 -7 -40 -45
-45 -38 -5 -40 -7 -45 -45 -5 -38 -7 -40 -42 -43 l-38 -3 0 -49 c0 -44 -3 -50
-23 -55 -13 -4 -27 -5 -33 -4 -27 5 -34 -3 -34 -40 0 -40 0 -40 -42 -43 -40
-3 -43 -5 -44 -33 -1 -48 -12 -58 -54 -52 -46 6 -60 -6 -60 -49 0 -30 -3 -32
-42 -39 -24 -3 -58 -7 -75 -7 -30 -1 -33 -4 -33 -34 0 -39 -20 -57 -57 -52
-26 3 -28 0 -33 -37 -5 -39 -6 -40 -47 -43 l-42 -3 -3 -47 c-3 -42 -6 -47 -28
-50 -65 -7 -71 -11 -68 -45 3 -32 3 -32 -52 -40 -30 -4 -71 -9 -90 -10 -33 -2
-35 -4 -40 -42 -5 -40 -5 -40 -54 -43 -47 -3 -48 -4 -44 -33 6 -41 7 -41 -122
-51 -32 -3 -35 -6 -38 -38 -2 -19 -8 -38 -14 -41 -6 -4 -47 -7 -91 -7 -43 -1
-82 -4 -86 -7 -3 -4 -6 -21 -6 -38 l0 -32 -90 -10 -90 -10 3 -41 3 -42 -83 -7
c-46 -5 -108 -9 -138 -9 l-55 -1 -3 -36 -3 -36 -67 -7 c-109 -10 -178 -7 -191
7 -6 8 -8 16 -5 19 3 4 5 41 6 83 0 49 4 78 11 80 11 3 237 14 315 15 30 0 32
2 32 35 0 40 7 44 115 47 l70 3 0 35 c0 33 2 35 35 38 144 12 140 11 140 47
l0 33 78 7 c42 3 84 7 92 8 10 1 16 15 18 38 l3 36 82 9 81 9 1 35 c0 34 1 35
45 40 l45 5 3 46 c3 47 3 47 45 53 23 4 62 8 87 10 44 3 45 4 50 42 5 38 6 39
47 42 40 3 42 4 45 40 3 35 5 37 43 42 38 5 40 7 43 43 3 34 5 37 35 37 44 0
55 10 59 50 3 32 6 35 35 36 18 1 38 6 46 12 7 6 26 10 43 9 26 -2 29 1 26 26
-5 41 14 57 64 57 l44 0 0 39 c0 50 21 72 60 65 28 -6 29 -5 32 37 3 43 4 44
43 49 37 5 40 7 37 33 -5 38 14 57 55 57 33 0 34 1 28 28 -4 20 -1 33 10 42 8
7 15 27 15 46 0 31 2 33 38 36 l37 3 3 52 3 52 37 3 c33 3 37 6 40 33 5 55 5
55 107 55 l95 0 0 -39z"/>
</g>
</svg>
